<svg xmlns="http://www.w3.org/2000/svg" width="300" viewBox="0 0 224.88 97.5" height="130" version="1.0"><defs><clipPath id="a"><path d="M.516 16h223.73v64.895H.516Zm0 0"/></clipPath></defs><g clip-path="url(#a)"/><path fill="#010101" d="M18.078 55.11c1.098-.118 2.172-.223 3.242-.352 1.168-.14 2.016-.758 2.578-1.781 1.38-2.516 2.754-5.036 4.133-7.555.965-1.754 1.93-3.512 2.907-5.262.183-.328.218-.644.117-1-.442-1.562-1.164-2.988-2.075-4.32a8.5 8.5 0 0 0-1.355-1.512c-.348-.316-.715-.61-1.07-.914a4 4 0 0 0-1.637-.84c-.7-.176-1.398-.36-2.125-.336a7.7 7.7 0 0 0-1.336.157c-1.285.28-1.984 1.136-2.035 2.453-.02.62.11 1.207.453 1.738.172.258.25.543.25.848 0 .421-.246.648-.668.605a1.5 1.5 0 0 1-.895-.383c-.648-.582-1.011-1.32-1.199-2.156-.261-1.168-.054-2.262.516-3.293.742-1.34 1.824-2.3 3.285-2.82a10.4 10.4 0 0 1 2.379-.575c.77-.085 1.512.012 2.25.231 1.086.32 2.117.773 3.14 1.246.528.246.528.242.864-.242.66-.961 1.48-1.774 2.3-2.594.985-.984 2.083-1.832 3.215-2.633.82-.574 1.715-1.023 2.626-1.433.68-.309 1.417-.407 2.156-.465.496-.04.996-.09 1.496-.086 1.758.027 3.344.535 4.652 1.75.676.629 1.145 1.387 1.238 2.324.028.266.036.547-.027.8-.14.61-.308 1.22-.691 1.735a.82.82 0 0 1-.84.344c-.238-.035-.422-.164-.453-.41-.032-.262-.067-.543-.016-.797.168-.82-.047-1.52-.582-2.137-.61-.703-1.36-1.164-2.297-1.289-.449-.062-.875.016-1.289.176-.617.234-1.215.52-1.754.902-1.215.852-1.918 2.043-2.203 3.473-.312 1.586-.004 3.086.793 4.469.86 1.484 1.637 3.011 2.41 4.543.801 1.586 1.73 3.097 2.64 4.62.587.985 1.208 1.95 1.786 2.938.387.664.742 1.344 1.078 2.035.235.485.508.946.758 1.418 1.875 3.536 3.879 6.993 5.957 10.407.063.105.125.207.195.304.172.243.282.266.524.102a8 8 0 0 0 .5-.383c.785-.644 1.554-1.316 2.418-1.86.164-.1.328-.241.52-.124.222.133.425.316.452.594.012.109-.043.238-.101.332-.633 1-1.367 1.918-2.278 2.683-.125.102-.234.215-.359.317-1.555 1.242-2.969 2.636-4.39 4.023-.329.32-.684.613-1.024.922-.383.348-.781.683-1.148 1.05a68 68 0 0 1-3.375 3.184 9 9 0 0 1-.457.387c-.352.266-.77.16-.942-.242-.16-.383-.144-.77.074-1.121a4.2 4.2 0 0 1 .52-.653c.383-.39.789-.761 1.18-1.148.136-.133.265-.274.375-.426.359-.5.421-1.043.195-1.617a2 2 0 0 0-.145-.293c-.98-1.738-1.957-3.473-2.941-5.207-.34-.598-.715-1.176-1.059-1.773-.363-.641-.707-1.293-1.062-1.938-.274-.5-.555-.992-.836-1.488-.316-.563-.664-1.114-.953-1.692-.192-.383-.457-.527-.875-.53-1.156-.013-2.317-.056-3.473-.071-1.75-.02-3.496-.028-5.242-.04-.172 0-.34.012-.512.02a.58.58 0 0 0-.511.313c-.407.742-.82 1.48-1.207 2.234-.262.512-.153.844.351 1.125.625.352 1.266.68 1.898 1.02q2.011 1.066 4.016 2.14c.133.07.266.14.387.227.617.441 1.187.39 1.754-.078.242-.2.527-.274.836-.254a.5.5 0 0 1 .148.02c.473.117.61.515.29.882-.216.25-.45.48-.688.707-.754.715-1.489 1.45-2.274 2.125-1.234 1.067-2.375 2.223-3.554 3.348-1.024.976-2.075 1.926-3.118 2.887-.074.066-.148.136-.234.187-.3.184-.64.04-.719-.305a.6.6 0 0 1-.015-.207c.05-.449.148-.882.398-1.27.363-.558.34-1.019-.094-1.527a3 3 0 0 0-.226-.234c-.184-.172-.375-.336-.551-.508-1.715-1.672-3.797-2.652-6.09-3.219a27 27 0 0 0-2.465-.492c-1.312-.203-2.586.008-3.824.477-.832.316-1.629.707-2.379 1.183a7.2 7.2 0 0 0-1.902 1.715q-.17.228-.352.45c-.851 1.02-1.07 2.187-.851 3.48.148.879.574 1.578 1.254 2.14a9.2 9.2 0 0 0 1.937 1.235c.785.371 1.59.418 2.426.246 1.941-.402 3.16-1.598 3.828-3.418.27-.73.316-1.476.297-2.238-.008-.348-.004-.695-.004-1.047a.8.8 0 0 1 .023-.207c.063-.223.223-.313.434-.219.414.184.75.469.8.934.114 1 .177 2.008.102 3.015a5.7 5.7 0 0 1-.742 2.38c-.582 1.03-1.3 1.956-2.195 2.742a2.4 2.4 0 0 1-.465.328c-1.816.921-3.645.96-5.457.011a12.4 12.4 0 0 1-2.996-2.175c-.79-.782-1.285-1.72-1.375-2.848-.016-.207-.067-.41-.102-.617-.277-1.621-.09-3.192.64-4.66.9-1.797 1.97-3.497 3.368-4.957 1.09-1.137 2.305-2.122 3.68-2.899 1.418-.809 2.96-1.226 4.566-1.453.16-.02.317-.04.504-.059m12.387-6.754c-.14.262-.29.52-.418.79-.23.48-.125.632.398.64.7.012 1.399.02 2.094.05.559.02 1.117.095 1.672.102.848.016 1.7-.003 2.547-.015.113 0 .222-.031.383-.055a6 6 0 0 0-.157-.3c-.164-.282-.343-.56-.496-.848a37 37 0 0 1-.672-1.371c-.398-.856-.832-1.696-1.363-2.485-.183-.27-.324-.57-.492-.851-.106-.176-.227-.344-.367-.551-.106.117-.18.187-.242.273-.188.266-.36.547-.555.813a21 21 0 0 0-1.457 2.258c-.281.504-.567 1.008-.875 1.55m116.422 10.133c.015-1.074.023-2.12.039-3.168.008-.508.043-1.015.039-1.523-.004-.719-.04-1.434-.05-2.152-.005-.27.015-.54.034-.805.028-.324-.07-.598-.316-.805-.942-.797-1.938-1.5-3.098-1.96-.523-.208-.988-.134-1.437.19-.84.61-1.414 1.426-1.836 2.356a1.8 1.8 0 0 0-.133.727c.02 2.414.05 4.824.082 7.238.004.207.031.418.035.625a.97.97 0 0 0 .262.652c.793.867 1.672 1.63 2.707 2.2.351.19.71.246 1.101.183.125-.023.254-.047.383-.05.328-.012.48.144.48.468.005.29-.093.55-.257.785a4.6 4.6 0 0 1-.516.617 772 772 0 0 1-3.566 3.586c-.2.196-.414.38-.63.555-.308.258-.66.3-1.038.168-.574-.195-1.078-.512-1.563-.867-.53-.39-1.054-.793-1.601-1.156-.492-.325-1.012-.606-1.52-.899-.523-.3-1.058-.281-1.57.016-.246.144-.469.336-.695.515-.27.22-.532.457-.801.676-.09.074-.195.14-.305.188-.383.16-.695.007-.816-.387-.153-.5-.094-.969.238-1.383.164-.2.34-.39.508-.586.262-.305.527-.601.781-.91a1.36 1.36 0 0 0 .293-.828c.07-2.074.07-4.145-.012-6.219a30 30 0 0 1 .063-3.855c.047-.551-.117-1.02-.442-1.45-.699-.917-1.632-1.437-2.746-1.683a1.66 1.66 0 0 0-1.132.14c-.2.098-.387.211-.586.301a2.7 2.7 0 0 1-.536.192c-.261.054-.468-.067-.613-.278-.144-.21-.137-.418 0-.64.348-.582.813-1.059 1.29-1.528 1.44-1.414 2.882-2.824 4.433-4.113.781-.652 1.625-1.223 2.441-1.832a.4.4 0 0 1 .051-.031c.195-.121.398-.203.61-.047.19.137.277.43.199.676-.028.093-.078.183-.121.27-.047.09-.102.171-.141.265-.129.293-.078.476.172.683q.094.078.195.137 2.323 1.37 4.645 2.735c.078.046.16.086.238.128.27.153.512.114.742-.09.434-.378.875-.753 1.305-1.14.902-.805 1.789-1.625 2.695-2.422.422-.367.875-.695 1.324-1.027.348-.258.735-.29 1.137-.14.395.148.785.292 1.172.456.434.18.816.453 1.184.75.859.7 1.71 1.41 2.609 2.059.805.582 1.726.75 2.703.484.125-.035.25-.078.375-.105.305-.063.45.039.508.347.047.243.012.48-.086.703a4.5 4.5 0 0 1-.32.606c-.352.535-.504 1.125-.528 1.754-.004.097-.012.2-.004.297.086 1.039-.011 2.07-.058 3.105-.055 1.106-.07 2.211-.117 3.317-.043 1.066-.106 2.132-.145 3.199a8 8 0 0 0 .04 1.043c.05.46.25.863.581 1.187.234.227.492.434.758.63.328.241.68.452 1.008.694.34.25.695.29 1.074.122.152-.067.297-.16.453-.227.219-.098.445-.176.695-.102.13.04.196.118.203.258.012.223-.015.438-.144.63-.129.187-.25.386-.395.562-.789.965-1.578 1.933-2.386 2.883-.262.308-.575.578-.875.855-.395.367-.801.723-1.2 1.082-.097.086-.187.18-.289.262-.34.289-.628.324-1.02.113-1.183-.64-2.366-1.29-3.55-1.926a3.4 3.4 0 0 1-.926-.75 12 12 0 0 0-.832-.851c-.672-.625-.906-1.41-.879-2.297.008-.25.047-.496.063-.742.035-.649.008-1.29-.074-1.938-.07-.57-.035-1.152-.043-1.758m32.601 9.637c-1.125-.762-2.168-1.602-3.21-2.437-.594-.473-1.239-.399-1.723.199a35 35 0 0 0-1.02 1.293 7.35 7.35 0 0 1-2.297 2.023c-.82.465-1.687.567-2.52.008a25 25 0 0 1-1.515-1.121c-.555-.442-1.078-.922-1.633-1.363-.402-.329-.82-.633-1.254-.922a2.74 2.74 0 0 0-1.398-.477 1.76 1.76 0 0 0-.871.176q-.503.264-1.012.523c-.14.075-.277.16-.426.211-.332.11-.605-.129-.507-.46a2.4 2.4 0 0 1 .328-.7c.297-.433.625-.851.945-1.273a1.06 1.06 0 0 0 .227-.633q.076-2.526.16-5.05c.023-.856.043-1.716.078-2.571q.023-.571.105-1.13c.102-.73-.082-1.358-.578-1.905-.394-.442-.418-.942-.05-1.407.21-.261.437-.523.695-.738 1.242-1.027 2.32-2.219 3.441-3.371.649-.664 1.324-1.3 1.98-1.957.731-.727 1.446-1.465 2.184-2.18 1.063-1.027 2.215-1.957 3.383-2.86.531-.413 1.195-.23 1.406.4.211.62.594 1.1 1.102 1.492.445.34.894.667 1.351.992 1.54 1.105 3.086 2.203 4.625 3.312.32.23.63.242.946.035.265-.175.511-.379.77-.566.308-.223.605-.461.925-.66.2-.13.43-.211.652-.297.207-.078.41-.035.61.062.191.094.297.243.254.454-.028.144-.07.293-.145.418-.281.46-.633.867-1.062 1.207a8 8 0 0 0-.786.687 2.17 2.17 0 0 0-.652 1.5c-.047 1.223-.082 2.453-.18 3.672-.16 1.902-.168 3.805-.242 5.707-.015.387-.027.777-.078 1.164-.07.54.047 1.027.305 1.496.558 1.004 1.347 1.75 2.449 2.129.434.152.879.266 1.32.387a.89.89 0 0 0 .817-.184c.43-.34.855-.687 1.285-1.031.086-.07.168-.14.258-.203a1.2 1.2 0 0 1 .234-.13c.184-.066.375-.105.54.032.136.113.163.418.058.617a6.2 6.2 0 0 1-.864 1.29A32 32 0 0 1 186 66.8c-.95.824-1.922 1.617-2.887 2.426-.566.476-1.168.472-1.773.101-.621-.383-1.223-.793-1.852-1.203m-7.261-5.762c.207.172.402.356.625.512.242.168.496.328.765.457.293.14.613.18.938.137s.453-.184.468-.512c.012-.238.012-.477.028-.719.14-2.136.289-4.273.422-6.414.05-.844.062-1.691.09-2.539.007-.234-.012-.465-.18-.644-.453-.477-.914-.953-1.488-1.293-1.286-.766-2.57-1.532-3.86-2.293a1.3 1.3 0 0 0-.242-.121c-.18-.063-.258-.024-.3.168a1.5 1.5 0 0 0-.032.355c-.004.707.012 1.414-.016 2.121-.047 1.266-.117 2.527-.183 3.793-.028.496-.078.992-.106 1.488-.043.828-.074 1.653-.105 2.48a.72.72 0 0 0 .258.61c.187.164.37.336.562.492.774.633 1.547 1.266 2.356 1.922m-88.11-16.375c1.938-1.773 3.86-3.531 5.778-5.293.406-.37.828-.445 1.347-.254 1.281.477 2.574.926 3.867 1.371.68.239 1.38.399 2.11.372.617-.02 1.21-.13 1.765-.41.364-.184.668-.434.934-.739.289-.332.363-.707.21-1.113-.155-.418-.476-.664-.913-.727-.211-.03-.434.004-.653.028-.515.047-1.03.109-1.546.16-.496.043-.914-.309-.98-.883-.028-.285.105-.488.359-.598.261-.117.53-.242.812-.297.555-.109 1.121-.222 1.684-.246.472-.023.957.067 1.43.13.363.05.734.109 1.085.21.793.227 1.39.715 1.805 1.434.32.554.387 1.14.262 1.758-.27 1.297-.942 2.359-1.891 3.261a13 13 0 0 1-2.398 1.782c-.848.492-1.786.746-2.727.972-1.027.25-2.066.469-3.121.559-.875.07-1.758.086-2.633.094-.629.004-1.258-.047-1.887-.075-.07 0-.14-.011-.21-.011-.489-.008-.684.12-.856.582a4.54 4.54 0 0 0-.113 2.879c.066.246.18.472.37.64q.707.623 1.434 1.223c.243.2.54.297.84.375.457.125.852.012 1.188-.309.328-.32.644-.652.976-.972 1.32-1.278 2.637-2.555 3.965-3.82.13-.126.313-.22.488-.274.403-.129.715.082.786.496.007.047.007.098.011.148.016.391.149.743.399 1.043.176.215.375.414.578.606.793.73 1.586 1.457 2.39 2.176.356.32.532.695.547 1.18.075 2.12.164 4.242.25 6.363.012.328-.093.597-.32.836-2.379 2.503-4.871 4.898-7.324 7.328-.27.27-.57.496-.961.574a.86.86 0 0 1-.578-.074c-.969-.5-1.89-1.063-2.696-1.817-.69-.652-1.464-1.207-2.277-1.699-.648-.394-1.34-.672-2.105-.715-.336-.015-.688-.027-1.012.047q-1.296.3-2.574.68c-1.114.336-1.809 1.14-2.262 2.164-.219.492-.133 1.008.152 1.46.325.516 1.157.735 1.711.462q.811-.392 1.586-.84c.41-.238.828-.274 1.27-.153.379.106.562.446.422.813-.09.234-.223.453-.43.602-1.008.718-2.082 1.304-3.3 1.574-.766.168-1.513.125-2.224-.23-.816-.407-1.316-1.075-1.562-1.942-.367-1.281-.238-2.504.441-3.664a8.84 8.84 0 0 1 3.454-3.36c1.87-1.023 3.878-1.562 6.023-1.535.68.008 1.36.024 2.035 0 .914-.027 1.813.114 2.719.184 1.035.082 2.074.11 3.11.164.241.016.386-.117.456-.313.157-.44.282-.894.282-1.37 0-.36-.13-.688-.38-.95q-.61-.64-1.238-1.258c-.652-.644-1.457-1-2.332-1.23-.34-.09-.683-.05-.98.14a3.7 3.7 0 0 0-.672.54c-.625.648-1.215 1.324-1.844 1.964-.312.32-.66.61-1.015.883-.625.477-1.543.524-2.196.082-1.242-.836-2.476-1.687-3.57-2.718a7 7 0 0 1-.438-.45c-.421-.48-.593-1.035-.582-1.675.02-.747-.039-1.497-.05-2.243-.016-.84.02-1.675.242-2.492.14-.512.36-.992.672-1.426a.8.8 0 0 1 .207-.207c.726-.402 1.336-.941 1.93-1.508.152-.144.304-.289.468-.449m126.637-20.851c.297.297.582.574.863.86.352.362.524.804.52 1.3a25 25 0 0 1-.09 1.61 1.34 1.34 0 0 1-.29.71c-.312.418-.644.817-1.066 1.125-.457.336-.953.543-1.53.504-.231-.016-.462.008-.688-.016a1.4 1.4 0 0 1-.457-.12c-.207-.098-.25-.305-.243-.512.004-.063.075-.141.137-.18.14-.09.293-.172.445-.242.305-.149.625-.266.922-.43.72-.398 1.067-1.023 1.063-1.84 0-.289-.098-.55-.278-.777a2.84 2.84 0 0 0-1.015-.82 1.75 1.75 0 0 0-.934-.16c-.484.05-.972.109-1.457.167a2 2 0 0 0-.41.086c-1.039.36-1.996.868-2.773 1.66-.653.665-1.024 1.489-1.286 2.368-.195.664-.277 1.343-.335 2.03a70 70 0 0 0-.262 5.645c-.004.829.031 1.653-.02 2.48a141 141 0 0 0-.203 4.45c-.039 1.367 0 2.735-.035 4.098-.039 1.394-.133 2.789-.187 4.183-.036.926-.04 1.852-.067 2.778-.023.898-.039 1.793-.098 2.687-.027.426.094.719.442.969 1.39 1.023 2.77 2.063 4.148 3.102.543.41.668.418 1.18-.047.52-.47 1.016-.961 1.531-1.43.145-.133.309-.262.485-.348.43-.207.773.032.738.504-.035.434-.234.793-.54 1.106-.3.304-.577.629-.878.937-.629.656-1.246 1.324-1.902 1.946-1.211 1.148-2.446 2.265-3.672 3.398a10 10 0 0 1-.383.332c-.406.324-.899.36-1.34.09-.11-.067-.215-.149-.316-.227-1.348-.996-2.7-1.992-4.043-2.992-.414-.312-.813-.648-1.223-.969a8 8 0 0 0-.582-.418.75.75 0 0 0-.824-.02 7 7 0 0 0-.719.485c-.285.215-.555.457-.832.684-.29.234-.605.422-.977.5-.05.008-.097.02-.148.027-.46.05-.629-.14-.527-.594.078-.359.234-.668.515-.918a84 84 0 0 0 1.5-1.378 5 5 0 0 0 .477-.497c.277-.336.406-.734.34-1.168-.051-.32-.02-.636 0-.953a73 73 0 0 0 .082-2.242c.039-1.683.05-3.367.105-5.05.028-.829.14-1.653.176-2.477.074-1.672.117-3.348.184-5.02.058-1.586.132-3.168.199-4.75.027-.57.058-1.133-.008-1.703-.043-.398.016-.816.059-1.222.12-1.153.125-2.31.078-3.465-.004-.067-.016-.141 0-.207.199-.903.074-1.786-.137-2.664-.078-.32-.14-.641-.211-.965-.008-.035-.012-.078-.031-.114-.336-.718-.95-1.793-1.883-1.933-.215-.031-.422-.117-.625-.203-.266-.114-.332-.266-.29-.551.06-.367.27-.613.583-.79.535-.308 1.121-.464 1.726-.562 1.153-.183 2.27-.007 3.36.38.09.03.176.09.262.14a1.05 1.05 0 0 0 1.027.078c.203-.09.394-.2.578-.316.899-.578 1.793-1.164 2.688-1.743 1.136-.734 2.367-1.246 3.699-1.488.43-.078.875-.09 1.312-.094.547-.003 1.098-.003 1.64.059a5.3 5.3 0 0 1 1.806.527c.324.168.62.395.945.61"/><path fill="#010101" d="M119.086 52.645c-.684.59-1.348 1.164-2.016 1.734-.195.168-.386.344-.605.488-.485.32-.906.715-1.313 1.13-.554.57-1.125 1.132-1.683 1.702-.297.297-.301.446-.035.77.73.894 1.593 1.644 2.539 2.308.53.371 1.05.762 1.578 1.137.254.176.511.352.773.512.293.183.59.16.864-.051a7 7 0 0 0 .374-.297c1.211-1.039 2.422-2.086 3.633-3.121.282-.242.575-.465.864-.7.312-.25.675-.327 1.066-.331.273 0 .422.11.504.375.078.258.043.511-.055.758a3.6 3.6 0 0 1-.699 1.109c-.453.488-.91.98-1.387 1.45-1.914 1.878-3.843 3.745-5.89 5.487-.688.59-1.422 1.13-2.141 1.684-.344.266-.723.262-1.102.074a9 9 0 0 1-.73-.406c-.457-.27-.906-.547-1.36-.816-.292-.176-.57-.368-.804-.621-.082-.094-.195-.165-.305-.235-.406-.254-.828-.48-1.219-.758-.664-.472-1.386-.824-2.132-1.136a3 3 0 0 0-1.11-.23c-.406-.009-.722.14-1.004.437-.296.308-.629.582-.96.851a1.1 1.1 0 0 1-.426.207c-.332.09-.63-.062-.743-.386-.144-.399-.14-.79.184-1.11.234-.234.457-.48.719-.676.336-.257.5-.582.535-.992.102-1.183.117-2.367.035-3.554-.02-.32.059-.649.07-.977.012-.36 0-.715.004-1.074 0-.196-.023-.403.012-.594.082-.426.067-.852.047-1.281-.012-.285.008-.575.016-.864.011-.39.011-.777.039-1.164q.069-.985.168-1.964c.039-.407.109-.81.16-1.215a1 1 0 0 1 .277-.614c2.457-2.453 4.86-4.964 7.473-7.254 1.082-.945 2.195-1.855 3.281-2.796.34-.293.688-.157.875.113q.208.306.207.676.002.386-.008.777c0 .184.074.316.219.43 1.602 1.246 3.195 2.496 4.793 3.742.047.035.098.07.144.101.305.211.606.215.918 0 .497-.332 1.004-.652 1.508-.972.137-.086.278-.168.426-.219.285-.105.48-.035.633.234.406.727.336 1.282-.192 1.793a78 78 0 0 1-1.859 1.739c-1.71 1.53-3.43 3.05-5.16 4.59m-4.324.742c.207-.176.406-.352.613-.528.387-.32.695-.71.988-1.148-.113-.113-.21-.242-.332-.34-.597-.5-1.191-1-1.804-1.48-.36-.282-.747-.532-1.133-.786-.258-.167-.367-.109-.41.204q-.011.076-.016.148l-.082 1.555c-.055 1.242-.152 2.484-.078 3.73.012.196.039.387.062.582.254-.05.403-.195.555-.344q.816-.796 1.637-1.593m-60.282-7.54c.739-.687 1.48-1.343 2.184-2.038.723-.715 1.41-1.465 2.117-2.196.133-.136.266-.273.422-.383.414-.292.879-.289 1.274.024.203.156.398.344.543.555.613.879 1.437 1.5 2.355 2.035 1.191.691 2.375 1.394 3.621 1.984.23.11.406.094.598-.078 1.804-1.664 3.617-3.32 5.426-4.984.21-.196.414-.403.625-.598.28-.262.449-.281.777-.098.445.25.86.543 1.242.887.473.426.95.852 1.453 1.246.64.512 1.38.828 2.192.973.316.054.593.02.843-.184q.177-.143.375-.25c.325-.176.645-.148.828.059.192.219.192.62-.015.89-.102.137-.227.254-.344.371q-2.544 2.584-5.09 5.16c-.117.118-.234.243-.351.364-.598.617-1.305.738-2.086.43a6.4 6.4 0 0 1-1.903-1.176 9 9 0 0 1-.398-.36c-.445-.44-.984-.707-1.594-.843q-.216-.052-.437-.098c-.29-.062-.473.012-.64.254-.13.18-.157.387-.169.598-.039.738-.082 1.472-.113 2.21a596 596 0 0 0-.184 4.602c-.027.734-.027 1.473-.062 2.211a2.25 2.25 0 0 0 .566 1.621c.778.906 1.735 1.555 2.844 1.985.195.074.398.128.594.199a.8.8 0 0 0 .718-.078c.184-.106.356-.23.54-.325.175-.093.359-.183.546-.226.383-.09.7.168.723.555.023.335-.113.593-.348.824-.832.804-1.656 1.617-2.484 2.426q-2.76 2.7-5.52 5.406c-.078.074-.148.16-.238.222-.12.09-.246.18-.379.23-.492.188-.918-.136-.832-.651.051-.313.168-.614.281-.91.082-.212.215-.407.317-.61.207-.406.152-.734-.168-1.059L65.105 67c-.855-.7-1.722-1.395-2.71-1.906-.333-.172-.708-.266-1.07-.367-.466-.125-.915-.04-1.329.199-.21.117-.402.265-.617.37q-.318.16-.664.255c-.195.058-.352-.035-.45-.211-.18-.328-.21-.68-.038-1.004.18-.332.398-.645.628-.945.188-.243.41-.457.622-.684q.481-.509.523-1.21c.07-1.224.16-2.446.219-3.669.078-1.656.133-3.308.21-4.96a1.62 1.62 0 0 0-.292-1.04 5.4 5.4 0 0 0-1.09-1.187c-.43-.344-.883-.653-1.328-.973-.532-.387-1.078-.758-1.602-1.156-.308-.239-.629-.34-1.004-.23-.246.073-.492.163-.734.253-.23.082-.457.137-.7.059-.367-.117-.562-.375-.476-.746.074-.305.203-.606.352-.883.226-.426.566-.77.925-1.117m126.633-22.18a5.6 5.6 0 0 1 1.672-.766c.809-.226 1.613-.465 2.445-.586 1.032-.152 2.07-.125 3.11-.09 1.941.063 3.777.598 5.605 1.184.758.242 1.344.73 1.848 1.332.195.235.227.399.117.567-.129.203-.336.25-.637.16-.488-.145-.972-.305-1.464-.43-1.688-.426-3.403-.492-5.121-.309-.88.094-1.75.293-2.622.473-.562.117-1.07.387-1.539.711-.351.246-.699.504-1.02.785a2.175 2.175 0 0 0-.155 3.13c.058.066.125.124.183.194.188.23.172.356-.078.508-.5.305-1.043.422-1.61.239-.988-.32-1.753-.938-2.25-1.856-.347-.64-.566-1.332-.507-2.066a3.88 3.88 0 0 1 1.191-2.508c.25-.242.543-.442.832-.672"/></svg>