<?xml version="1.0" standalone="no"?>
<!DOCTYPE svg PUBLIC "-//W3C//DTD SVG 20010904//EN"
 "http://www.w3.org/TR/2001/REC-SVG-20010904/DTD/svg10.dtd">
<svg version="1.0" xmlns="http://www.w3.org/2000/svg"
 width="1079.000000pt" height="949.000000pt" viewBox="0 0 1079.000000 949.000000"
 preserveAspectRatio="xMidYMid meet">

<g transform="translate(0.000000,949.000000) scale(0.100000,-0.100000)"
fill="#000000" stroke="none">
<path d="M5234 9394 c-87 -51 -161 -91 -164 -89 -4 2 -22 -8 -41 -24 -38 -30
-215 -134 -234 -137 -17 -3 -418 -236 -430 -250 -14 -17 -77 -54 -91 -54 -15
0 -302 -166 -329 -190 -24 -22 -182 -115 -233 -138 -34 -16 -175 -17 -1797
-17 -1867 0 -1855 0 -1896 -45 -14 -16 -15 -90 -12 -732 l4 -713 28 -40 c21
-31 59 -58 171 -122 80 -45 170 -97 200 -116 30 -19 173 -103 317 -187 l263
-152 2 -1486 c2 -818 1 -1514 -2 -1547 -3 -33 -2 -292 2 -575 3 -283 7 -1006
8 -1607 2 -872 5 -1095 15 -1110 34 -46 45 -46 1320 -52 660 -3 1603 -4 2095
-1 492 3 918 3 945 0 28 -3 439 -3 915 0 476 3 888 3 915 0 28 -3 592 -2 1255
1 1282 6 1291 6 1326 53 13 19 15 529 14 4697 l0 1627 307 178 c170 99 311
180 316 180 4 1 11 2 16 3 5 0 20 11 33 22 13 12 76 52 139 88 83 49 121 78
141 107 l27 39 5 685 c5 661 5 687 -14 728 -12 27 -29 46 -47 53 -40 16 -1098
26 -2471 23 l-1133 -2 -197 115 c-108 64 -216 124 -240 134 -52 23 -210 115
-237 139 -27 24 -314 190 -329 190 -14 0 -77 37 -91 54 -13 15 -413 247 -430
250 -8 1 -56 27 -109 58 l-95 56 -157 -94z m440 -211 c149 -86 286 -169 304
-185 18 -15 39 -28 48 -28 8 0 246 -135 530 -300 l515 -300 1765 0 c1555 0
1769 -2 1795 -15 29 -15 39 -38 38 -85 0 -14 -5 -279 -11 -590 -8 -455 -13
-571 -24 -597 -15 -32 -16 -33 -82 -34 -269 -4 -10181 -5 -10270 -1 l-112 5
-14 31 c-15 32 -25 403 -28 984 -1 254 0 264 20 284 l20 21 1772 -2 1772 -2
39 25 c21 14 41 26 44 26 3 0 129 72 280 160 151 88 281 160 289 160 8 0 29
12 47 28 41 34 959 570 978 571 8 1 136 -70 285 -156z m-3404 -2360 l0 -98
-615 0 -614 0 -22 -21 c-16 -17 -23 -39 -28 -99 l-6 -77 -135 83 c-142 87
-348 210 -438 263 -48 28 -51 32 -30 37 13 4 443 7 956 8 l932 1 0 -97z m6130
2 l0 -95 -27 -1 c-103 -4 -5888 -5 -5925 -1 l-48 5 0 93 0 94 3000 0 3000 0 0
-95z m1999 89 c17 -4 31 -10 31 -15 0 -9 -75 -51 -98 -55 -7 -1 -101 -56 -208
-121 -107 -65 -223 -135 -257 -156 l-62 -37 -5 80 c-8 127 60 115 -655 115
l-615 0 0 98 0 97 919 0 c505 0 933 -3 950 -6z m-8125 -2201 c-1 -1039 -2
-1965 -3 -2059 l-1 -171 -109 -5 c-59 -2 -160 -2 -223 0 l-115 4 -7 146 c-4
79 -4 223 0 318 l7 174 162 0 163 0 -3 1046 c-2 575 -6 1048 -9 1051 -9 9 -39
11 -189 12 l-138 1 3 63 3 62 48 3 c82 5 81 1 74 375 -3 177 -9 332 -13 345
-6 22 -7 22 -219 22 -185 0 -214 -2 -226 -17 -11 -12 -15 -77 -19 -279 -3
-144 -2 -260 3 -257 4 2 7 -29 7 -69 0 -110 4 -118 56 -118 l44 0 0 -65 0 -65
-127 -1 c-119 -2 -147 -3 -181 -7 -10 -2 -12 -206 -12 -1052 l1 -1050 159 0
158 0 4 -317 c2 -175 2 -320 1 -322 -5 -8 -442 -6 -449 2 -9 9 -15 3759 -7
3975 l6 142 576 0 576 0 -1 -1887z m1706 1694 l0 -194 -122 -5 c-113 -5 -803
-1 -925 6 l-53 3 -127 124 c-71 68 -151 144 -180 168 -29 24 -59 54 -68 67
l-15 24 745 0 745 0 0 -193z m1370 -2 l0 -195 -47 0 c-27 0 -316 -3 -644 -5
l-597 -5 -6 22 c-8 30 -8 172 0 286 l7 92 643 0 644 0 0 -195z m1440 -7 l0
-201 -442 6 c-244 4 -550 7 -680 7 l-238 0 0 195 0 195 680 0 680 0 0 -202z
m1515 178 c-9 -13 -39 -43 -68 -67 -29 -24 -109 -100 -180 -168 l-127 -124
-58 -3 c-31 -2 -270 -5 -529 -8 l-473 -5 0 200 0 199 725 0 725 0 -15 -24z
m1369 -129 c3 -84 6 -286 5 -451 -1 -240 2 -300 13 -307 11 -8 11 -11 -1 -18
-12 -8 -14 -242 -15 -1599 l-1 -1589 -96 -7 c-53 -4 -150 -4 -216 0 l-120 7
-7 145 c-4 80 -4 223 0 318 l7 174 162 0 163 0 -3 1046 c-2 575 -6 1048 -9
1051 -9 9 -39 11 -189 12 l-138 1 3 63 3 62 48 3 c82 5 81 1 74 375 -3 177 -9
332 -13 345 -6 22 -7 22 -220 22 -209 0 -213 0 -228 -22 -14 -19 -16 -63 -16
-274 0 -139 -3 -254 -7 -257 -5 -2 -2 -2 5 -1 9 3 12 -16 12 -69 0 -109 4
-117 56 -117 l44 0 0 -65 0 -65 -127 -1 c-119 -2 -147 -3 -181 -7 -10 -2 -12
-206 -12 -1052 l1 -1050 159 0 158 0 4 -317 c2 -175 2 -320 1 -321 -3 -6 -454
-4 -460 2 -3 3 -7 930 -8 2061 l-1 2055 572 -1 571 0 7 -152z m-6993 -147
l147 -141 -9 -37 c-5 -20 -9 -240 -9 -488 l0 -451 -86 -7 c-47 -4 -139 -4
-205 0 l-119 7 0 695 0 696 68 -66 c37 -37 133 -130 213 -208z m5729 -540 c6
0 10 -80 10 -215 0 -137 -4 -215 -10 -215 -6 0 -10 -31 -10 -74 l0 -73 -110
-7 c-61 -4 -153 -4 -205 0 l-95 7 -2 490 -3 489 164 157 c89 86 182 176 205
200 l41 43 3 -401 c1 -256 6 -401 12 -401z m-4854 330 l424 0 0 -210 0 -210
-187 -1 c-104 -1 -204 0 -223 2 -19 2 -57 3 -84 2 l-48 -2 -137 133 c-75 74
-171 167 -214 207 l-79 74 34 7 c18 3 46 4 62 2 16 -2 219 -4 452 -4z m2725 0
l509 0 0 -210 0 -210 -102 -1 c-57 0 -363 -1 -681 -2 l-577 -2 0 212 0 212
143 4 c78 2 155 2 171 0 16 -2 257 -3 537 -3z m1482 2 l39 -7 -79 -74 c-43
-41 -142 -136 -220 -212 -137 -133 -143 -138 -171 -128 -17 6 -50 7 -83 2 -30
-4 -126 -7 -215 -5 l-161 2 -6 188 c-4 103 -4 197 -1 209 l6 23 412 3 c226 1
418 3 426 4 8 1 32 -1 53 -5z m-2413 -210 l0 -209 -347 -6 c-348 -7 -930 -4
-937 4 -2 2 -6 97 -10 212 l-7 207 650 0 651 0 0 -208z m-2179 -55 l226 -222
-6 -215 -6 -215 -170 3 c-93 1 -195 2 -226 2 l-56 0 -7 78 c-7 88 4 792 13
792 3 -1 108 -101 232 -223z m4709 -212 l0 -435 -57 0 c-32 0 -133 -1 -225 -3
-92 -2 -171 -1 -177 2 -5 4 -10 96 -12 215 l-3 210 230 222 c126 123 232 223
237 224 4 0 7 -196 7 -435z m-6050 183 c0 -112 3 -233 7 -270 l6 -68 -137 0
-136 0 0 203 c0 111 -3 232 -7 270 l-6 67 137 0 136 0 0 -202z m7420 0 c0
-112 3 -233 7 -270 l6 -68 -137 0 -136 0 0 203 c0 111 -3 232 -7 270 l-6 67
137 0 136 0 0 -202z m-3850 -256 c921 0 1715 1 1764 2 84 1 90 0 105 -23 14
-22 16 -191 16 -1755 0 -952 -2 -1862 -4 -2023 l-3 -292 -1878 -1 -1878 0 -3
293 c-2 160 -4 1071 -4 2023 0 1564 2 1733 16 1755 15 23 21 24 105 23 49 -1
843 -2 1764 -2z m-3680 -1084 c-1 -497 2 -1289 5 -1760 l6 -858 -25 0 c-19 0
-25 6 -30 32 -3 18 -6 197 -7 398 0 201 -1 975 -3 1720 -1 745 -1 1358 1 1363
2 4 15 7 29 7 l24 0 0 -902z m7420 0 c-1 -497 2 -1289 5 -1760 l6 -858 -25 0
c-19 0 -25 6 -30 32 -3 18 -6 197 -7 398 0 201 -1 975 -3 1720 -1 745 -1 1358
1 1363 2 4 15 7 29 7 l24 0 0 -902z m-7568 -125 c2 -445 2 -878 0 -963 l-3
-155 -104 -3 -105 -2 -2 262 c-2 145 -3 577 -3 960 l0 697 30 4 c17 2 65 5
107 5 l77 2 3 -807z m401 800 l67 -6 -2 -956 -3 -956 -103 2 c-57 1 -106 3
-108 6 -8 8 -14 1413 -8 1670 l7 247 41 0 c23 0 71 -3 109 -7z m7018 -785 c1
-727 0 -1120 -5 -1125 -1 -1 -47 -5 -104 -9 l-102 -7 -2 264 c-2 145 -3 578
-3 961 l0 697 30 4 c17 2 65 5 108 5 l77 2 1 -792z m402 785 l67 -6 -2 -956
-3 -956 -107 0 -108 -1 0 46 c-8 1066 -9 1411 -4 1623 l7 257 41 0 c23 0 71
-3 109 -7z m-6583 -658 l0 -625 -182 0 c-101 0 -193 -3 -205 -6 l-23 -6 0 631
0 631 205 0 205 0 0 -625z m580 -4 l0 -626 -118 -3 c-64 -2 -169 0 -232 3
l-115 7 -3 461 c-1 254 1 535 4 625 l6 163 229 -2 229 -1 0 -627z m4491 122
c0 -619 -1 -736 -7 -742 -2 -3 -108 -6 -234 -7 l-230 -3 0 628 0 629 235 1
235 2 1 -508z m519 -124 c0 -571 -1 -631 -16 -625 -9 3 -101 6 -205 6 l-189 0
0 618 c0 340 3 622 7 625 3 4 96 7 205 7 l198 0 0 -631z m-5590 -1350 l0 -652
-82 6 c-46 4 -138 7 -206 7 l-123 0 2 599 c0 330 -2 605 -6 611 -4 6 -4 27 -1
46 l7 34 204 0 205 0 0 -651z m580 7 l0 -644 -132 -7 c-73 -3 -178 -5 -233 -3
l-100 3 0 530 c0 292 1 583 3 648 l2 117 230 0 230 0 0 -644z m4490 284 c3
-195 4 -485 2 -645 l-3 -290 -92 -3 c-51 -2 -156 0 -234 3 l-143 7 0 644 0
644 233 -2 232 -3 5 -355z m526 326 c3 -19 3 -40 -1 -46 -4 -6 -6 -281 -6
-611 l2 -599 -114 0 c-63 0 -155 -3 -205 -6 l-92 -7 0 645 c0 354 3 648 7 651
3 4 95 7 204 7 l198 0 7 -34z m-6826 -1616 l0 -280 -53 0 c-81 0 -91 -12 -96
-114 l-3 -86 -62 -1 c-58 -2 -85 -3 -113 -7 -9 -2 -13 -28 -13 -92 l0 -90 -49
0 c-28 0 -53 4 -56 10 -3 5 -8 219 -11 475 l-5 465 231 0 230 0 0 -280z m696
212 c6 -56 -3 -862 -9 -869 -2 -1 -33 -5 -70 -9 l-67 -7 0 92 c0 65 -4 91 -12
93 -7 0 -17 2 -23 3 -5 2 -40 3 -77 4 l-68 1 0 67 c0 37 -5 82 -12 100 -11 31
-15 33 -59 33 -44 0 -47 2 -53 31 -8 41 -8 457 0 497 l6 31 218 0 218 0 8 -67z
m535 -194 c0 -145 1 -276 2 -293 0 -16 0 -112 -1 -212 l-2 -183 -68 0 c-38 0
-130 3 -205 7 l-137 6 0 469 0 468 205 0 206 0 0 -262z m580 20 c0 -134 1
-256 2 -273 0 -16 0 -121 -1 -233 l-2 -203 -230 2 -230 2 -1 231 c-1 226 0
709 1 714 0 1 104 2 230 2 l231 0 0 -242z m4487 -230 l-3 -473 -232 -3 -233
-2 -2 202 c-1 112 -1 217 -1 233 1 17 2 139 2 273 l0 242 236 0 235 0 -2 -472z
m522 -3 l0 -475 -205 2 -205 1 1 467 c0 257 2 470 6 474 3 3 96 6 205 6 l198
0 0 -475z m600 195 l0 -280 -53 0 c-81 0 -91 -12 -96 -114 l-3 -86 -62 -1
c-58 -2 -85 -3 -113 -7 -9 -2 -13 -28 -13 -93 l0 -92 -61 6 c-33 3 -62 7 -64
9 -8 8 -18 807 -11 870 l8 67 234 0 234 0 0 -279z m679 118 c1 -90 -1 -302 -5
-473 l-7 -310 -58 -3 -59 -3 0 90 c0 65 -4 91 -12 93 -7 0 -17 2 -23 3 -5 2
-40 3 -77 4 l-68 1 0 67 c0 37 -5 82 -12 100 -11 31 -15 33 -59 33 -44 0 -47
2 -53 31 -3 17 -6 129 -6 249 0 120 3 232 6 249 l7 31 211 0 212 0 3 -162z
m-7839 -553 l0 -45 -150 0 -150 0 0 45 0 45 150 0 150 0 0 -45z m7420 0 l0
-45 -150 0 -150 0 0 45 0 45 150 0 150 0 0 -45z m-7297 -142 l67 -6 0 -44 0
-44 -345 3 -345 3 0 42 c0 40 2 42 33 46 55 7 518 7 590 0z m7420 0 l67 -6 0
-44 0 -44 -345 3 -345 3 0 42 c0 40 2 42 33 46 55 7 518 7 590 0z m-7107 -685
c-3 -260 -6 -530 -6 -600 l0 -127 -550 2 c-532 3 -551 3 -570 22 -18 19 -19
43 -25 598 l-5 577 581 0 581 0 -6 -472z m534 430 l0 -43 -205 3 -205 3 0 39
0 40 205 0 205 0 0 -42z m5060 -5 l0 -43 -2470 0 -2470 0 0 43 0 42 2470 0
2470 0 0 -42z m530 7 l0 -39 -205 -3 -205 -3 0 43 0 42 205 0 205 0 0 -40z
m1275 -537 c-6 -555 -7 -579 -25 -598 -19 -19 -38 -19 -570 -22 l-550 -2 0
127 c0 70 -3 340 -6 600 l-6 472 581 0 581 0 -5 -577z m-3415 369 c487 0 901
1 920 1 19 -1 182 -1 363 -2 l327 0 0 -129 0 -129 -112 -6 c-89 -4 -4509 -3
-4765 2 l-63 1 0 130 0 131 331 -2 c182 0 332 1 334 3 2 1 403 2 892 1 488 -2
1286 -2 1773 -1z m-3450 -49 c0 -115 -13 -213 -27 -213 -30 0 -81 -32 -94 -58
-8 -18 -14 -83 -17 -194 -5 -195 11 -178 -159 -178 l-113 0 0 345 0 345 205 0
205 0 0 -47z m5590 -298 l0 -345 -112 0 c-171 0 -155 -17 -160 178 -3 111 -9
176 -17 194 -13 26 -64 58 -94 58 -14 0 -27 98 -27 213 l0 47 205 0 205 0 0
-345z m-2364 -45 l1934 0 20 -32 c16 -26 19 -51 19 -145 l1 -113 -168 -1
c-722 -5 -4555 -6 -4774 -1 l-278 5 1 112 c0 92 3 117 19 143 l20 32 597 3
c329 2 615 2 636 0 21 -2 909 -3 1973 -3z m742 -420 l1622 0 0 -87 0 -88
-3000 0 -3000 0 0 87 0 88 1338 3 c735 2 1355 1 1377 -1 22 -1 770 -3 1663 -2z"/>
<path d="M4968 8887 l-418 -242 0 -485 0 -485 420 -243 420 -242 420 242 420
243 0 485 0 485 -415 240 c-229 132 -419 241 -423 242 -4 1 -195 -107 -424
-240z m772 -126 l345 -198 0 -403 0 -404 -347 -199 -348 -199 -347 199 -348
199 0 404 0 403 345 198 c190 109 347 199 350 199 3 0 160 -90 350 -199z"/>
<path d="M5305 8799 c-42 -72 -74 -133 -72 -136 3 -2 27 2 54 9 46 13 49 16
73 76 14 34 27 62 30 62 3 0 16 -28 29 -61 21 -54 29 -63 65 -79 92 -40 92
-42 -1 114 -47 81 -89 146 -93 146 -4 0 -43 -59 -85 -131z"/>
<path d="M5149 8613 l-226 -65 -92 -191 -92 -192 90 -187 c50 -102 95 -189
101 -193 19 -12 431 -125 456 -125 30 0 485 157 501 173 19 19 74 160 60 154
-6 -3 -130 -53 -274 -111 -144 -58 -272 -106 -284 -106 -26 0 -349 116 -364
131 -5 6 -35 67 -66 137 l-55 127 59 135 59 136 183 66 184 67 233 -93 c128
-52 257 -104 286 -115 l52 -21 -13 33 c-8 17 -24 55 -36 83 l-22 50 -252 87
c-139 48 -254 87 -257 86 -3 -1 -107 -30 -231 -66z"/>
<path d="M5167 8467 l-78 -30 -80 -136 -81 -135 23 -56 c40 -98 80 -182 84
-178 4 4 225 559 225 565 0 6 -14 1 -93 -30z"/>
<path d="M5540 8443 c11 -27 60 -151 111 -278 50 -126 92 -231 94 -233 4 -5
185 69 190 78 6 9 -207 374 -234 402 -13 13 -159 78 -176 78 -2 0 5 -21 15
-47z"/>
<path d="M5317 8365 c-52 -18 -54 -21 -27 -51 18 -18 33 -24 55 -22 28 3 30 6
33 46 4 47 -1 49 -61 27z"/>
<path d="M5402 8339 c3 -40 6 -44 32 -47 26 -3 76 29 76 49 0 8 -41 25 -83 35
-28 6 -28 6 -25 -37z"/>
<path d="M5233 8308 c-73 -80 -71 -223 5 -291 20 -18 21 -18 31 2 9 16 6 27
-14 57 -34 50 -34 121 0 179 20 35 22 45 12 59 -12 16 -14 15 -34 -6z"/>
<path d="M5511 8316 c-10 -12 -8 -23 13 -59 35 -60 36 -130 1 -181 -22 -33
-24 -40 -12 -57 13 -18 14 -18 34 4 73 79 71 222 -5 290 -17 15 -21 16 -31 3z"/>
<path d="M5374 8279 c-4 -7 -22 -9 -45 -6 -43 6 -64 -10 -79 -62 -12 -43 9
-51 60 -22 22 12 55 21 80 21 25 0 58 -9 80 -21 51 -29 72 -21 60 22 -15 52
-36 68 -79 62 -23 -3 -41 -1 -45 6 -4 6 -11 11 -16 11 -5 0 -12 -5 -16 -11z"/>
<path d="M5375 8195 c-5 -2 -22 -6 -37 -9 -58 -13 -20 -49 52 -49 72 0 110 36
53 49 -54 12 -58 12 -68 9z"/>
<path d="M5250 8126 c0 -13 8 -34 19 -47 17 -23 25 -24 121 -23 95 0 104 2
121 23 25 31 25 71 0 71 -10 0 -32 -7 -47 -15 -16 -8 -49 -15 -74 -15 -25 0
-58 7 -74 15 -43 22 -66 19 -66 -9z"/>
<path d="M5290 8015 c-28 -30 -22 -37 40 -55 51 -14 51 -14 48 33 -3 39 -5 42
-33 45 -22 2 -37 -4 -55 -23z"/>
<path d="M5407 8033 c-4 -3 -7 -24 -7 -46 0 -38 1 -39 28 -33 44 11 82 28 82
37 0 32 -81 65 -103 42z"/>
<path d="M4752 7872 c-29 -49 -52 -91 -52 -95 0 -4 37 7 81 24 45 16 83 28 84
27 2 -2 15 -43 30 -93 l28 -90 19 44 c21 50 18 71 -12 71 -16 0 -30 21 -66
100 -26 55 -50 100 -53 100 -4 0 -30 -40 -59 -88z"/>
<path d="M5950 7915 c-35 -82 -34 -83 53 -116 42 -16 77 -25 77 -21 0 6 -96
171 -106 181 -2 2 -13 -18 -24 -44z"/>
<path d="M5856 7794 c-22 -8 -42 -16 -44 -19 -3 -2 6 -32 18 -65 12 -33 25
-59 27 -56 9 9 51 156 45 155 -4 0 -25 -7 -46 -15z"/>
<path d="M344 8245 c-17 -9 -37 -28 -45 -43 -17 -35 -33 -932 -17 -974 15 -41
66 -60 130 -51 29 5 748 7 1598 6 1711 -2 2063 2 2085 24 12 11 14 100 15 512
0 446 -2 500 -16 512 -13 11 -335 13 -1833 15 -999 0 -1832 4 -1851 8 -23 4
-45 1 -66 -9z m206 -306 c0 -108 -3 -297 -7 -420 l-6 -224 -65 0 c-95 1 -97 5
-83 195 6 83 11 253 11 378 0 272 -1 269 89 268 l61 -1 0 -196z m1044 14 c3
-98 5 -285 5 -415 l-1 -238 -470 0 -471 0 7 223 c3 122 9 309 12 415 l6 192
453 0 452 0 7 -177z m300 0 c3 -98 5 -285 5 -415 l-1 -238 -94 0 -94 0 -2 103
c-1 56 -1 111 0 122 0 11 1 152 2 313 l1 292 88 0 88 0 7 -177z m300 0 c3 -98
5 -285 5 -415 l-1 -238 -94 0 -94 0 -2 103 c-1 56 -1 111 0 122 0 11 1 152 2
313 l1 292 88 0 88 0 7 -177z m300 0 c3 -98 5 -285 5 -415 l-1 -238 -94 0 -94
0 -2 103 c-1 56 -1 111 0 122 0 11 1 152 2 313 l1 292 88 0 88 0 7 -177z m300
0 c3 -98 5 -285 5 -415 l-1 -238 -94 0 -94 0 -2 103 c-1 56 -1 111 0 122 0 11
1 152 2 313 l1 292 88 0 88 0 7 -177z m300 0 c10 -294 6 -651 -7 -656 -7 -2
-49 -2 -94 1 l-83 5 -2 101 c-1 55 -1 110 0 121 0 11 1 152 2 313 l1 292 88 0
88 0 7 -177z m300 0 c3 -98 5 -285 5 -415 l-1 -238 -94 0 -94 0 -2 103 c-1 56
-1 111 0 122 0 11 1 152 2 313 l1 292 88 0 88 0 7 -177z m300 0 c3 -98 5 -285
5 -415 l-1 -238 -94 0 -94 0 -2 103 c-1 56 -1 111 0 122 0 11 1 152 2 313 l1
292 88 0 88 0 7 -177z m300 0 c3 -98 5 -285 5 -415 l-1 -238 -94 0 -94 0 -2
103 c-1 56 -1 111 0 122 0 11 1 152 2 313 l1 292 88 0 88 0 7 -177z"/>
<path d="M867 8072 c-81 -5 -80 -2 -72 -354 3 -167 8 -318 11 -335 l5 -33 314
0 c313 0 314 0 329 22 13 19 16 59 15 248 0 235 -10 435 -22 446 -7 7 -491 12
-580 6z m496 -269 c4 -91 7 -208 7 -260 l0 -93 -235 0 -235 0 0 193 c0 105 -3
222 -7 260 l-6 67 235 0 235 0 6 -167z"/>
<path d="M10405 8251 c-22 -3 -737 -5 -1590 -4 -1723 2 -2059 -2 -2080 -24
-12 -11 -14 -101 -15 -512 0 -446 2 -500 16 -512 13 -11 337 -13 1838 -15
1001 -1 1833 -4 1848 -8 35 -10 91 17 109 52 17 35 33 932 17 974 -5 15 -25
34 -43 42 -35 17 -37 17 -100 7z m-2488 -125 c3 -2 5 -244 4 -528 l-2 -298
-88 0 -88 0 -7 178 c-9 274 -6 646 6 653 8 5 167 1 175 -5z m2520 -13 c13 -19
13 -45 4 -173 -6 -83 -11 -253 -11 -378 0 -272 2 -267 -89 -267 l-61 0 0 196
c0 108 3 297 7 420 l6 224 65 0 c56 -1 67 -4 79 -22z m-3415 -85 c1 -57 1
-112 0 -123 0 -11 -1 -152 -2 -312 l-1 -293 -88 0 -88 0 -7 178 c-3 97 -5 284
-5 415 l1 237 94 0 94 0 2 -102z m300 0 c1 -57 1 -112 0 -123 0 -11 -1 -152
-2 -312 l-1 -293 -88 0 -88 0 -7 178 c-3 97 -5 284 -5 415 l1 237 94 0 94 0 2
-102z m300 0 c1 -57 1 -112 0 -123 0 -11 -1 -152 -2 -312 l-1 -293 -88 0 -88
0 -7 178 c-3 97 -5 284 -5 415 l1 237 94 0 94 0 2 -102z m600 0 c1 -57 1 -112
0 -123 0 -11 -1 -152 -2 -312 l-1 -293 -88 0 -88 0 -7 178 c-3 97 -5 284 -5
415 l1 237 94 0 94 0 2 -102z m300 0 c1 -57 1 -112 0 -123 0 -11 -1 -152 -2
-312 l-1 -293 -88 0 -88 0 -7 178 c-3 97 -5 284 -5 415 l1 237 94 0 94 0 2
-102z m300 0 c1 -57 1 -112 0 -123 0 -11 -1 -152 -2 -312 l-1 -293 -88 0 -88
0 -7 178 c-3 97 -5 284 -5 415 l1 237 94 0 94 0 2 -102z m300 0 c1 -57 1 -112
0 -123 0 -11 -1 -152 -2 -312 l-1 -293 -88 0 -88 0 -7 178 c-3 97 -5 284 -5
415 l1 237 94 0 94 0 2 -102z m1044 -120 c-3 -123 -9 -310 -12 -415 l-6 -193
-453 0 -452 0 -7 178 c-3 97 -5 284 -5 415 l1 237 470 0 471 0 -7 -222z"/>
<path d="M9376 8058 c-13 -19 -16 -59 -15 -248 0 -241 10 -435 23 -447 4 -5
145 -8 313 -8 l305 0 20 25 c19 24 20 35 13 330 -3 168 -8 320 -11 338 l-5 32
-314 0 c-313 0 -314 0 -329 -22z m554 -270 c0 -106 3 -223 7 -260 l6 -68 -235
0 -235 0 -6 167 c-4 91 -7 208 -7 260 l0 93 235 0 235 0 0 -192z"/>
<path d="M1630 5753 c0 -104 3 -198 6 -210 6 -21 12 -23 70 -23 l64 0 0 188
c0 103 -3 197 -6 210 -6 20 -12 22 -70 22 l-64 0 0 -187z"/>
<path d="M9050 5753 c0 -104 3 -198 6 -210 6 -21 12 -23 70 -23 l64 0 0 188
c0 103 -3 197 -6 210 -6 20 -12 22 -70 22 l-64 0 0 -187z"/>
<path d="M5285 5106 c-120 -39 -226 -118 -412 -307 -177 -179 -213 -224 -213
-266 0 -64 78 -93 250 -93 55 0 100 -3 100 -6 0 -5 -70 -162 -825 -1859 -207
-464 -350 -797 -352 -821 -10 -77 -29 -75 555 -72 l512 3 25 25 c39 39 207
415 213 476 10 111 -67 174 -254 207 l-69 12 84 163 83 162 430 -2 430 -3 70
-199 71 -198 -130 -257 c-153 -300 -170 -340 -154 -370 12 -21 13 -21 535 -21
485 0 524 1 539 18 34 38 227 430 233 473 11 88 -69 179 -191 214 l-52 15
-131 363 c-158 437 -233 644 -319 882 -246 685 -330 911 -369 991 -98 207
-250 385 -383 448 -56 26 -79 31 -151 33 -50 2 -102 -3 -125 -11z m235 -1406
c34 -113 74 -245 90 -295 16 -49 26 -93 24 -97 -3 -5 -102 -8 -221 -8 -201 0
-215 1 -209 18 61 168 243 608 247 599 4 -7 34 -104 69 -217z"/>
<path d="M1464 5046 c-19 -14 -19 -34 -19 -848 0 -458 4 -850 8 -870 7 -35 11
-38 42 -38 l35 0 0 885 0 885 -23 0 c-13 0 -32 -6 -43 -14z"/>
<path d="M1857 5053 c-4 -3 -7 -402 -7 -885 l0 -878 39 0 c24 0 44 6 52 17 12
13 14 160 15 852 1 571 -2 846 -9 869 -10 28 -15 32 -47 32 -20 0 -40 -3 -43
-7z"/>
<path d="M8884 5046 c-19 -14 -19 -34 -19 -848 0 -458 4 -850 8 -870 7 -35 11
-38 42 -38 l35 0 0 885 0 885 -23 0 c-13 0 -32 -6 -43 -14z"/>
<path d="M9277 5053 c-4 -3 -7 -402 -7 -885 l0 -878 39 0 c24 0 44 6 52 17 12
13 14 160 15 852 1 571 -2 846 -9 869 -10 28 -15 32 -47 32 -20 0 -40 -3 -43
-7z"/>
</g>
</svg>
