<?xml version="1.0" encoding="UTF-8"?>
<svg id="Layer_2" xmlns="http://www.w3.org/2000/svg" viewBox="0 0 680.51 176.44">
  <defs>
    <style>
      .cls-1 {
        fill: #ffffff;
      }
    </style>
  </defs>
  <g id="Arsenal_Gothic_Wordmark">
    <g id="L">
      <path class="cls-1" d="M626.26,10.24c1.08-1.08,1.08-2.84,0-3.93-.13-.13-.28-.25-.43-.35-.02-.01-.03-.02-.05-.03-.03-.02-.06-.03-.09-.05-5.69-3.32-13.76-5.54-22.78-5.85-17.59-.6-32.1,6.28-32.41,15.38-.18,5.14,4.21,9.88,11.23,13.15,1.03.48,2.29.3,3.14-.55,1.07-1.07,1.09-2.82.03-3.9-1.39-1.46-2.14-3.04-2.08-4.67.22-6.33,12.37-11.06,27.15-10.55,4.96.17,9.58.91,13.53,2.06.94.28,2.01.04,2.75-.7Z"/>
      <path class="cls-1" d="M680.42,17.18c-.19-1.46-.69-2.83-1.43-4.08-3.16-5.29-10.88-8.46-19.52-7.63-.33.04-.65.05-.98.09-10.9,1.42-20.21,6.38-26.19,13.12-2.19-1.78-6.04-3.06-10.48-3.26-3.76-.16-7.17.5-9.54,1.66-.04.01-.07.03-.11.05-.04.02-.08.04-.12.06-.26.13-.49.29-.71.51-1.08,1.08-1.08,2.84,0,3.93.3.3.65.53,1.02.66.77.27,1.51.59,2.19.96,2.01,1.08,3.58,2.56,4.51,4.27.6,1.1.94,2.3.94,3.56,0,0,0,0,0,0v104.67s-4,4-4,4c-1.08,1.08-1.08,2.84,0,3.93h0c1.08,1.08,2.84,1.08,3.93,0l2.28-2.28,20.81,16.26c1.09.84,2.66.76,3.66-.24l14.86-14.86s0,0,0,0l7.14-7.14c1.08-1.08,1.08-2.84,0-3.93s-2.84-1.08-3.93,0l-4.26,4.26-14.04-10.97V34.14c0-.99.08-1.96.2-2.91.05-.39.09-.78.15-1.16,1.33-7.67,6.25-13.84,12.67-16.11,1.23-.43,2.52-.71,3.84-.84.19-.02.39-.02.58-.03.25-.02.49-.03.73-.04.09,0,.18-.02.27-.02.65-.01,1.28.02,1.89.09,3.5.39,6.23,2.07,6.93,4.66.91,3.35-1.86,7.11-6.42,9.18-.29.13-.55.32-.79.56-1.08,1.08-1.08,2.84,0,3.93.78.78,1.92.99,2.9.64.07-.02.14-.05.2-.08,0,0,0,0,0,0,7.06-3.07,11.58-8.85,10.8-14.81Z"/>
    </g>
    <g id="A">
      <path class="cls-1" d="M610.91,131.51c-1.08-1.08-2.84-1.08-3.93,0l-4.26,4.26-8.99-7.03v-37.34l4-4c1.08-1.08,1.08-2.84,0-3.93-1.08-1.08-2.84-1.08-3.93,0l-2.28,2.28-26.9-21.02c.87-1.09.81-2.68-.2-3.69-1.08-1.08-2.84-1.08-3.93,0l-11,11-20.94,20.94-10.78,10.78c-1.08,1.08-1.08,2.84,0,3.93s2.84,1.08,3.93,0l.08-.08v24.22l-4,4c-1.08,1.08-1.08,2.84,0,3.93,1.08,1.08,2.84,1.08,3.93,0l2.28-2.28,25.84,20.19h0c1.09.84,2.66.76,3.66-.24l13.8-13.8,17.97,14.04h0c1.09.84,2.66.76,3.66-.24l9-9,5.86-5.86,7.14-7.14c1.08-1.08,1.08-2.84,0-3.93ZM567.29,135.77l-.21-.17h0l-15.1-11.8-2.88-2.25h0l-.88-.68v-33.39l19.07,14.9v33.39Z"/>
    </g>
    <g id="N">
      <path class="cls-1" d="M512.73,131.51c-1.08-1.08-2.84-1.08-3.93,0l-4.26,4.26-.22-.17h0s-8.78-6.86-8.78-6.86v-39.39l4-4c1.08-1.08,1.08-2.84,0-3.93s-2.84-1.08-3.93,0l-2.28,2.28-23.21-18.13h0c-1.09-.84-2.66-.76-3.66.24l-18.22,18.22-18.6-14.53c.87-1.09.81-2.68-.2-3.69-1.08-1.08-2.84-1.08-3.93,0l-11,11s0,0,0,0l-11,11c-1.08,1.08-1.08,2.84,0,3.93,1.08,1.08,2.84,1.08,3.93,0l2.26-2.26,10.47,8.18v42.06l-4,4c-1.08,1.08-1.08,2.84,0,3.93s2.84,1.08,3.93,0l2.28-2.28,15.76,12.31h0c1.09.84,2.66.76,3.66-.24l9-9,5.86-5.86,7.14-7.14c1.08-1.08,1.08-2.84,0-3.93-1.08-1.08-2.84-1.08-3.93,0l-4.26,4.26-3.41-2.66-5.58-4.36v-35.23l6.04-6.04,11.41,8.92,5.03,3.93v43.31l2.92,2.28,15.05,11.76h0c1.09.84,2.66.76,3.66-.24l9-9,5.86-5.86,7.14-7.14c1.08-1.08,1.08-2.84,0-3.93Z"/>
    </g>
    <g id="E">
      <path class="cls-1" d="M396.98,118.28l-17.49,17.49-.22-.17h0l-13.98-10.93-4.86-3.79,40.48-40.48c1.08-1.08,1.08-2.84,0-3.93-1.08-1.08-2.84-1.08-3.93,0l-2.26,2.26-17.9-13.99c.87-1.09.81-2.68-.2-3.69-1.08-1.08-2.84-1.08-3.93,0l-37.89,37.89c-.55.55-.82,1.28-.81,2h0v38.52l-1.71,1.71c-1.08,1.08-1.08,2.84,0,3.93,1.08,1.08,2.84,1.08,3.93,0l4.26-4.26,21.55,16.84h0c1.09.84,2.66.76,3.66-.24l9-9,5.86-5.86,20.37-20.37c1.08-1.08,1.08-2.84,0-3.93s-2.84-1.08-3.93,0ZM360.43,113.02v-25.55l14.34,11.2-14.34,14.34Z"/>
    </g>
    <g id="S">
      <path class="cls-1" d="M310.7,90.99c.87-1.09.81-2.68-.2-3.69-1.08-1.08-2.84-1.08-3.93,0l-20.22,20.22-6.36-4.97v-16.66h13.82c4.79-.04,10.29-1.17,15.8-3.45,13.61-5.65,22.15-16.24,19.07-23.66-.14-.33-.3-.64-.47-.94-2.76-4.78-10.35-6.66-19.28-5.25,0,0-.02,0-.03,0-.04,0-.07,0-.11.02-.51.11-1,.35-1.4.75-1.08,1.08-1.08,2.84,0,3.93.69.69,1.65.94,2.54.76.06-.01.11-.03.17-.04,5.32-1.03,10.07.39,10.61,3.18s-3.33,5.89-8.64,6.93c-.13.03-.26.04-.39.06-.22.04-.44.08-.66.11-8.2,1.25-16.34-1.51-22.52-7.06l-.53-.4c-1.09-.83-2.65-.76-3.64.23l-29.96,29.96c-.55.55-.82,1.28-.81,2h0v24.43l4.6,3.59,10.71,8.36h0c1.09.86,2.68.79,3.69-.21l18.22-18.22,6.38,4.98v16.66h-13.82c-4.79.04-10.29,1.17-15.8,3.45-13.61,5.65-22.15,16.24-19.07,23.66.14.33.3.64.47.94,2.76,4.78,10.35,6.66,19.28,5.25,0,0,.02,0,.03,0,.04,0,.07,0,.11-.02.51-.11,1-.35,1.4-.75,1.08-1.08,1.08-2.84,0-3.93-.69-.69-1.65-.94-2.54-.76-.06.01-.11.03-.17.04-5.32,1.03-10.07-.39-10.61-3.18s3.33-5.89,8.64-6.93c.13-.03.26-.04.39-.06.22-.04.44-.08.66-.11,8.2-1.25,16.34,1.51,22.52,7.06l.53.4c1.09.83,2.65.76,3.64-.23l29.96-29.96c.55-.55.82-1.28.81-2h0v-24.43l-4.6-3.59-8.28-6.47Z"/>
    </g>
    <g id="R">
      <path class="cls-1" d="M256.8,70.58c-1.08-1.08-2.84-1.08-3.93,0l-2.26,2.26-15.4-12.03h0c-1.09-.84-2.66-.76-3.66.24l-22.93,22.93-18.54-14.48c.87-1.09.81-2.68-.2-3.69-1.08-1.08-2.84-1.08-3.93,0l-11,11-3.1,3.1-7.9,7.9c-1.08,1.08-1.08,2.84,0,3.93s2.84,1.08,3.93,0l2.26-2.26,16.44,12.85v33.44l-4.01,4.01c-1.08,1.08-1.08,2.84,0,3.93s2.84,1.08,3.93,0l2.28-2.28,18.31,14.3-2.54,2.54c-1.08,1.08-1.08,2.84,0,3.93s2.84,1.08,3.93,0l19.62-19.62h0s7.14-7.14,7.14-7.14c1.08-1.08,1.08-2.84,0-3.93-1.08-1.08-2.84-1.08-3.93,0l-4.26,4.26-.22-.17h0l-13.81-10.79v-37.38l4.72-4.72,15.39,12.02h0c1.09.85,2.67.77,3.67-.23l20-20c1.08-1.08,1.08-2.84,0-3.93Z"/>
    </g>
    <g id="A-2" data-name="A">
      <path class="cls-1" d="M174.6,117.17c-1.08-1.08-2.85-1.08-3.93,0l-6.67,6.67c-.5.51-1.2.82-1.97.82-1.03,0-1.92-.56-2.41-1.39-7.66-13.31-44.29-76.67-51.18-88.65-2.67-4.45-2.9-10.68-.18-16.5,6.58-14.26,25.07-14.21,26.53,1.77.12,1.42,1.31,2.53,2.77,2.53s2.68-1.15,2.77-2.6c1.43-23.36-25.86-25.25-44.97-9.91-6.11,4.8-10.69,10.58-13.46,16.43-.82-.44-1.69-.85-2.56-1.22-15.45-6.98-37.27-1.2-38.01,14.35-.18,4.1,1.3,8.18,4.04,11.77.51.75,1.34,1.23,2.31,1.23,2.34,0,3.45-2.63,2.34-4.27-6.42-10.67,5.57-17.81,17.3-13.93,11.01,3.33,17.96,14.03,19.71,25.07.13.78.24,1.55.33,2.34l-26.46,45.84c-1.45,2.44-4.11,4.08-7.16,4.08-.66,0-1.35,0-2.01.01-26.56.64-48.65,16.65-51.55,38.95-1.63,12.55,7.22,24.04,19.77,25.67,16.08,2.2,29.62-13.26,24.96-29.08-.31-1.19-1.39-2.08-2.69-2.08-1.87-.04-3.27,1.94-2.62,3.69,3.76,10.74-5.36,22.02-16.74,20.35-12.31-1.69-18-16.32-10.01-25.81,13.33-15.91,46.85-12.54,58.2,5.1.75,1.02.59,2.68-.34,3.53l-1.57,1.57c-.24.24-.42.51-.55.79-1.26,2.76,2.21,5.31,4.48,3.13,0,0,29.85-29.85,29.85-29.85,2.51-2.73-1.25-6.42-3.93-3.93,0,0-1.17,1.17-1.17,1.17-.92.97-2.7,1.04-3.7.16-6.58-5-13.09-8.19-21.45-10.68-1.18-.32-2.05-1.4-2.05-2.68,0-.5.13-.96.36-1.37l4.09-7.08h38.72l22.7,39.32c1.92,3.06,1.36,7.57-1.21,10.05-.05.05-.11.11-.16.16l-5.56,5.56c-2.5,2.69,1.22,6.43,3.93,3.93,5.84-5.84,34.65-34.65,41.08-41.08,1.08-1.08,1.08-2.85,0-3.93ZM80.92,93.07l13.53-23.44,13.53,23.44h-27.06Z"/>
    </g>
  </g>
</svg>