<svg width="24" height="24" viewBox="0 0 24 24" fill="none" xmlns="http://www.w3.org/2000/svg">
<path d="M24 7.05275C24 6.37244 23.63 5.76216 23.04 5.47203L14.48 1.18008C14 0.939973 13.45 0.939973 12.97 1.18008L4.40997 5.47203C3.81997 5.77217 3.45001 6.38245 3.45001 7.05275V9.30377H5.5C5.97 9.30377 6.35999 9.69395 6.35999 10.1842C6.35999 10.6744 5.98 11.0646 5.5 11.0646H1.76001C1.29001 11.0646 0.900024 11.4548 0.900024 11.945C0.900024 12.4352 1.28001 12.8254 1.76001 12.8254H6.13C6.67 12.8254 7.09998 13.2156 7.09998 13.7058C7.09998 14.196 6.67 14.5862 6.13 14.5862H0.98999C0.43999 14.5862 0 14.9764 0 15.4666C0 15.9568 0.43999 16.347 0.98999 16.347H3.45001V17.0073C3.45001 17.6876 3.82998 18.2979 4.41998 18.598L12.98 22.8199C13.45 23.06 14 23.06 14.47 22.8199L23.03 18.598C23.63 18.2979 24 17.6876 24 17.0073V7.05275ZM20.93 8.43338L14.58 11.5348V18.0077C14.58 18.4879 14.2 18.8881 13.72 18.8881C13.24 18.8881 12.86 18.498 12.86 18.0077V11.5348L6.51001 8.43338C6.08001 8.22328 5.89998 7.69304 6.09998 7.25284C6.29998 6.81264 6.82 6.62256 7.25 6.83265L13.72 9.99409L20.19 6.83265C20.62 6.62256 21.13 6.81264 21.33 7.25284C21.53 7.69304 21.35 8.21328 20.92 8.43338H20.93Z" fill="#000000"/>
</svg>
