<svg width="24" height="24" viewBox="0 0 24 24" fill="none" xmlns="http://www.w3.org/2000/svg">
<path fill-rule="evenodd" clip-rule="evenodd" d="M23.76 12.55C23.76 12.57 23.78 12.6 23.78 12.6V12.59C23.92 12.94 24 13.32 24 13.7V15.5C24 17.15 22.65 18.5 21 18.5H19.08C18.72 19.65 17.66 20.5 16.39 20.5C15.19 20.5 14.17 19.74 13.76 18.68H8.31C7.91 19.74 6.88 20.5 5.68 20.5C4.48 20.5 3.46 19.74 3.05 18.68H3C1.35 18.68 0 17.33 0 15.68V6.5C0 4.85 1.35 3.5 3 3.5H13.6C15.25 3.5 16.6 4.85 16.6 6.5V7.78H18.4C19.25 7.78 20.07 8.15 20.64 8.79L23.24 11.71C23.46 11.96 23.63 12.25 23.76 12.55ZM4.86 17.68C4.86 18.13 5.23 18.5 5.68 18.5C6.13 18.5 6.5 18.13 6.5 17.68C6.5 17.23 6.13 16.86 5.68 16.86C5.23 16.86 4.86 17.23 4.86 17.68ZM3.05 16.68C3.45 15.62 4.48 14.86 5.68 14.86C6.88 14.86 7.9 15.62 8.31 16.68H13.76C13.94 16.22 14.23 15.83 14.6 15.52V6.5C14.6 5.95 14.15 5.5 13.6 5.5H3C2.45 5.5 2 5.95 2 6.5V15.68C2 16.23 2.45 16.68 3 16.68H3.05ZM15.57 17.68C15.57 18.13 15.94 18.5 16.39 18.5C16.84 18.5 17.21 18.13 17.21 17.68C17.21 17.23 16.84 16.86 16.39 16.86C15.94 16.86 15.57 17.23 15.57 17.68ZM18.94 16.5H20.99V16.51C21.54 16.51 21.99 16.06 21.99 15.51V13.97H19.64C19.09 13.97 18.64 13.52 18.64 12.97C18.64 12.42 19.09 11.97 19.64 11.97H20.78L19.14 10.12C18.95 9.9 18.68 9.78 18.39 9.78H16.59V14.88C17.63 14.95 18.52 15.59 18.94 16.5ZM12.4002 6.78C12.9502 6.78 13.4002 7.23 13.4002 7.78H13.3902C13.3902 8.33 12.9402 8.78 12.3902 8.78H4.2002C3.6502 8.78 3.2002 8.33 3.2002 7.78C3.2002 7.23 3.6502 6.78 4.2002 6.78H12.4002Z" fill="#93040c"/>
</svg>
