<svg width="24" height="24" viewBox="0 0 24 24" fill="none" xmlns="http://www.w3.org/2000/svg">
<path fill-rule="evenodd" clip-rule="evenodd" d="M12 0.00012207C5.37 0.00012207 0 5.37012 0 12.0001C0 18.6301 5.37 24.0001 12 24.0001C18.63 24.0001 24 18.6301 24 12.0001C24 5.37012 18.63 0.00012207 12 0.00012207ZM12 22.0001C6.48 22.0001 2 17.5201 2 12.0001C2 6.48012 6.48 2.00012 12 2.00012C17.52 2.00012 22 6.48012 22 12.0001C22 17.5201 17.52 22.0001 12 22.0001ZM12.0001 16.1701C11.3501 16.1701 10.8301 16.6901 10.8301 17.3301C10.8301 17.9701 11.3501 18.4901 12.0001 18.4901C12.6501 18.4901 13.1701 17.9701 13.1701 17.3301C13.1701 16.6901 12.6501 16.1701 12.0001 16.1701ZM10.6101 6.88012C10.5501 6.13012 11.2401 5.50012 12.0001 5.50012C12.7701 5.50012 13.4501 6.12012 13.3901 6.88012L12.7901 14.0301C12.6901 15.1901 11.3101 15.1901 11.2101 14.0301L10.6101 6.88012Z" fill="#93040C"/>
</svg>
