<?xml version="1.0" encoding="UTF-8"?>
<svg width="240px" height="160px" viewBox="0 0 240 160" version="1.1" xmlns="http://www.w3.org/2000/svg" xmlns:xlink="http://www.w3.org/1999/xlink">
    <title>Laybuy Payment Icon</title>
    <g id="New---Prototype" stroke="none" stroke-width="1" fill="none" fill-rule="evenodd">
        <g id="UK---Merchant---Assets---Payment-Icon" transform="translate(-1213, -1029)">
            <g id="Laybuy-Payment-Icon" transform="translate(1213, 1029)">
                <path d="M221.052632,0 L18.9473684,0 C8.48302579,0 0,8.954305 0,20 L0,140 C0,151.045695 8.48302579,160 18.9473684,160 L221.052632,160 C231.516974,160 240,151.045695 240,140 L240,20 C240,8.954305 231.516974,0 221.052632,0 Z" id="Path" fill="#751DFF" fill-rule="nonzero"></path>
                <path d="M128.490309,45.3817053 C138.255667,35.5394316 154.089776,35.5394316 163.855134,45.3817053 C173.621941,55.2225241 173.571223,71.1287442 163.804416,80.9710179 L163.397224,81.3827494 L125.006718,120.072415 C121.133324,123.975862 114.795043,123.975862 110.921649,120.072415 L111.139011,120.263004 L69.9039586,78.7072222 C66.0320138,74.8052299 66.0320138,68.416845 69.9039586,64.5133977 L70.1662423,64.2587935 C74.0584742,60.6114054 80.2025782,60.6972434 83.9890272,64.5133977 L117.062855,97.8447342 C117.062855,97.8447342 117.965633,98.7787681 118.894494,97.8418244 L149.312156,67.18747 L152.329143,64.1205797 C154.337569,62.0968395 154.382491,58.9775734 152.374064,56.9523783 C150.365638,54.9300929 147.109552,54.9300929 145.101126,56.9523783 L142.166737,59.9872612 L125.4284,76.8566129 C121.555007,80.7600601 115.216726,80.7600601 111.343332,76.8566129 L91.3387667,56.6963191 C87.4653729,52.7928719 87.4653729,46.404487 91.3387667,42.5010398 L91.5996013,42.2464355 C95.4918333,38.5990475 101.635937,38.6848855 105.423835,42.5010398 L117.481639,54.8718977 C117.481639,54.8718977 118.398908,55.5513274 119.07418,54.8704428 L128.490309,45.3817053 Z" id="Path" fill="#FFFFFF"></path>
            </g>
        </g>
    </g>
</svg>