<?xml version="1.0" encoding="UTF-8"?>
<svg width="1000px" height="249px" viewBox="0 0 1000 249" version="1.1" xmlns="http://www.w3.org/2000/svg" xmlns:xlink="http://www.w3.org/1999/xlink">
    <title>Fill 4 Copy 3</title>
    <g id="Page-1" stroke="none" stroke-width="1" fill="none" fill-rule="evenodd">
        <path d="M457.795166,62.0620621 L493.294012,140.22682 L526.084991,62.0620621 L564.564565,62.0620621 L480.828338,248.248248 L442.621627,248.248248 L474.054225,178.766162 L417.417417,62.0620621 L457.795166,62.0620621 Z M893.230602,62.0620621 L928.729447,140.22682 L961.520426,62.0620621 L1000,62.0620621 L916.263773,248.248248 L878.057063,248.248248 L909.48966,178.766162 L852.852853,62.0620621 L893.230602,62.0620621 Z M358.494001,59.0590591 C400.987541,59.0590591 416.784739,82.8961771 416.784739,109.719581 L416.784739,175.276086 C416.784739,182.317931 417.601579,191.79961 418.418418,196.404575 L385.190343,196.404575 C384.370522,192.883652 383.82795,185.570058 383.82795,180.421595 C377.015986,190.987317 364.214859,200.2002 344.330482,200.2002 C315.729176,200.2002 298.298298,180.965093 298.298298,160.1054 C298.298298,136.265328 316.003443,122.990977 338.338338,119.73885 L371.295128,114.86509 C378.923932,113.781048 381.37445,109.988376 381.37445,105.383411 C381.37445,95.9017323 374.022895,88.0446401 358.768269,88.0446401 C342.968089,88.0446401 334.25116,98.0698171 333.163034,109.719581 L301.023084,102.943577 C303.202316,82.0838837 322.54114,59.0590591 358.494001,59.0590591 L358.494001,59.0590591 Z M757.788961,63.0630631 L757.788961,140.187343 C757.788961,155.119494 765.384719,167.069952 782.199871,167.069952 C798.198753,167.069952 807.421114,156.206168 807.421114,140.726238 L807.421114,63.0630631 L843.491322,63.0630631 L843.491322,172.500364 C843.491322,182.81933 844.304623,192.051622 844.844845,196.670729 L810.404208,196.670729 C809.861018,193.952562 809.320796,187.707885 809.320796,182.277473 C801.998117,194.766828 786.536488,200.2002 772.43432,200.2002 C740.163476,200.2002 721.721722,176.574653 721.721722,147.518694 L721.721722,63.0630631 L757.788961,63.0630631 Z M608.005488,0 L608.005488,77.7951623 C613.958834,68.2776375 628.562441,59.5697993 648.308247,59.5697993 C687.258107,59.5697993 709.70971,89.7625081 709.70971,129.478674 C709.70971,170.007491 684.824666,200.2002 646.955348,200.2002 C628.562441,200.2002 614.497625,192.041051 607.463737,180.613496 L607.463737,196.937727 L572.572573,196.937727 L572.572573,0 L608.005488,0 Z M125.284464,41.0650064 C145.181056,21.0130326 177.442529,21.0130326 197.339121,41.0650064 C217.238666,61.1140161 217.13533,93.5202584 197.235785,113.572232 L196.406145,114.411066 L118.186762,193.234737 C110.294851,201.187353 97.380814,201.187353 89.4889025,193.234737 L89.9317707,193.623031 L5.91671926,108.96013 C-1.97223975,101.010478 -1.97223975,87.9952208 5.91671926,80.0426051 L6.45111356,79.5238918 C14.3814069,72.0929534 26.8998149,72.2678339 34.6145791,80.0426051 L102.001406,147.949585 C102.001406,147.949585 103.840785,149.852522 105.733308,147.943657 L167.708285,85.4905767 L173.855296,79.2423046 C177.947398,75.1192749 178.038924,68.7642961 173.946822,64.6383024 C169.85472,60.5182368 163.220554,60.5182368 159.128452,64.6383024 L153.149731,70.8213648 L119.045927,105.189825 C111.154015,113.142441 98.2399783,113.142441 90.3480669,105.189825 L49.5894295,64.116625 C41.697518,56.1640092 41.697518,43.1487518 49.5894295,35.196136 L50.1208713,34.6774227 C58.0511647,27.2464843 70.5695727,27.4213648 78.2872893,35.196136 L102.854665,60.3996738 C102.854665,60.3996738 104.723569,61.7838972 106.099413,60.3967097 L125.284464,41.0650064 Z M251.251251,196.196196 L287.287287,196.196196 L287.287287,0 L251.251251,0 L251.251251,196.196196 Z M382.382382,136.136136 L352.665615,140.765766 C343.564818,142.125849 336.336336,147.301888 336.336336,157.653966 C336.336336,165.550172 341.95914,173.173173 353.468454,173.173173 C368.461621,173.173173 382.382382,165.820407 382.382382,142.125849 L382.382382,136.136136 Z M640.776397,92.0920921 C622.709013,92.0920921 607.607608,105.277468 607.607608,129.4976 C607.607608,153.444871 622.709013,167.167167 640.776397,167.167167 C659.112342,167.167167 673.673674,153.711864 673.673674,129.4976 C673.673674,105.277468 659.112342,92.0920921 640.776397,92.0920921 L640.776397,92.0920921 Z" id="Fill-4-Copy-3" fill="#FFFFFF"></path>
    </g>
</svg>