<svg xmlns:xlink="http://www.w3.org/1999/xlink" xmlns="http://www.w3.org/2000/svg" viewBox="0 0 1133.86 117.76" height="117.76" fill="#fff" class="text-white light:text-black" width="1133.86" ><defs></defs><g><path d="M39.72,3.4h26.31l39.37,111.27h-25.21l-7.34-22.88H31.86l-7.54,22.88H0L39.72,3.4ZM38.19,72.63h28.5l-14.06-43.78-14.44,43.78Z"></path><rect x="111.32" y="61.38" width="42.12" height="20.38"></rect><path d="M186.69,15.03c8.96-9.16,20.36-13.74,34.21-13.74,18.52,0,32.06,6.14,40.62,18.42,4.73,6.9,7.27,13.81,7.62,20.75h-23.25c-1.48-5.33-3.38-9.36-5.69-12.08-4.14-4.83-10.28-7.25-18.41-7.25s-14.82,3.42-19.6,10.23c-4.78,6.82-7.17,16.47-7.17,28.95s2.52,21.84,7.57,28.05c5.05,6.21,11.46,9.33,19.24,9.33s14.05-2.67,18.24-8.01c2.31-2.86,4.23-7.17,5.76-12.9h23.1c-1.99,12.12-7.08,22-15.27,29.59-8.19,7.6-18.68,11.39-31.48,11.39-15.83,0-28.28-5.13-37.34-15.4-9.06-10.31-13.59-24.46-13.59-42.41,0-19.43,5.15-34.4,15.46-44.92"></path><path d="M373.39,104.78c-8.41,8.66-20.56,12.98-36.46,12.98s-28.06-4.32-36.46-12.98c-11.27-10.61-16.91-25.91-16.91-45.9s5.64-35.68,16.91-45.9c8.4-8.65,20.56-12.98,36.46-12.98s28.06,4.33,36.46,12.98c11.22,10.22,16.83,25.53,16.83,45.9s-5.61,35.28-16.83,45.9M358.86,87.87c5.41-6.78,8.11-16.45,8.11-28.99s-2.7-22.13-8.11-28.94c-5.41-6.82-12.72-10.23-21.93-10.23s-16.56,3.4-22.04,10.19c-5.48,6.81-8.23,16.47-8.23,28.99s2.74,22.21,8.23,28.99c5.48,6.81,12.83,10.2,22.04,10.2s16.52-3.39,21.93-10.2"></path><polygon points="405.09 3.4 428.34 3.4 428.34 94.68 483.9 94.68 483.9 114.67 405.09 114.67 405.09 3.4"></polygon><path d="M563.29,5.82c7.8,2.57,14.13,7.27,18.96,14.11,3.88,5.54,6.52,11.53,7.93,17.98,1.41,6.43,2.12,12.58,2.12,18.42,0,14.8-2.97,27.32-8.91,37.58-8.06,13.84-20.5,20.76-37.32,20.76h-47.97V3.4h47.97c6.9.1,12.64.91,17.23,2.42M520.66,22.73v72.62h21.47c10.99,0,18.65-5.41,22.98-16.24,2.37-5.93,3.55-13.01,3.55-21.21,0-11.32-1.78-20.02-5.33-26.08-3.55-6.06-10.62-9.09-21.21-9.09h-21.47Z"></path><rect x="610.86" y="61.38" width="42.12" height="20.38"></rect><polygon points="680.67 3.4 695.36 67.13 698.56 84.85 701.77 67.49 714.34 3.4 738.87 3.4 752.1 67.12 755.48 84.85 758.92 67.8 773.75 3.4 797.42 3.4 766.12 114.67 743.86 114.67 730.42 49.6 726.49 28.08 722.57 49.6 709.13 114.67 687.54 114.67 655.99 3.4 680.67 3.4"></polygon><path d="M826.91,3.4h26.31l39.37,111.27h-25.21l-7.34-22.88h-40.97l-7.54,22.88h-24.32L826.91,3.4ZM825.38,72.63h28.5l-14.06-43.78-14.44,43.78Z"></path><polygon points="908.18 3.4 931.43 3.4 931.43 94.68 986.99 94.68 986.99 114.67 908.18 114.67 908.18 3.4"></polygon><polygon points="1003.34 3.4 1026.59 3.4 1026.59 94.68 1082.15 94.68 1082.15 114.67 1003.34 114.67 1003.34 3.4"></polygon><polygon points="1085.7 15.82 1101.47 20.91 1101.47 2.72 1114.53 2.72 1114.53 20.92 1130.31 15.83 1133.86 27.06 1117.78 32.01 1128.27 47.04 1118.61 53.91 1108.14 39.71 1097.32 53.91 1087.66 47.04 1098.23 32.01 1082.15 27.06 1085.7 15.82"></polygon></g></svg>