<?xml version="1.0" standalone="no"?>
<!DOCTYPE svg PUBLIC "-//W3C//DTD SVG 20010904//EN"
 "http://www.w3.org/TR/2001/REC-SVG-20010904/DTD/svg10.dtd">
<svg version="1.0" xmlns="http://www.w3.org/2000/svg"
 width="1299.000000pt" height="527.000000pt" viewBox="0 0 1299.000000 527.000000"
 preserveAspectRatio="xMidYMid meet">

<g transform="translate(0.000000,527.000000) scale(0.100000,-0.100000)"
fill="#000000" stroke="none">
<path d="M5654 4627 c-160 -281 -291 -513 -289 -515 1 -1 62 27 136 62 225
108 481 181 723 205 54 6 102 14 106 18 9 9 420 734 420 739 0 2 -181 4 -402
4 l-403 0 -291 -513z m715 319 l113 -113 -23 -42 c-13 -22 -26 -41 -29 -41 -3
0 -75 70 -160 155 l-155 155 70 0 70 0 114 -114z m210 57 c-58 -103 -46 -101
-129 -18 l-74 75 117 0 118 0 -32 -57z m-655 -584 c-2 -4 -23 -10 -45 -14 -41
-7 -42 -6 -110 61 l-68 67 21 40 20 40 93 -93 c52 -52 92 -97 89 -101z m-184
-52 c-3 -2 -42 -17 -88 -34 l-82 -31 42 79 43 79 44 -45 c25 -24 43 -46 41
-48z"/>
<path d="M1737 4296 c-83 -30 -157 -122 -157 -196 l0 -30 1823 0 1822 0 63
113 c34 62 62 116 62 120 0 4 -804 7 -1787 7 -1468 -1 -1795 -3 -1826 -14z"/>
<path d="M7085 4300 c11 -4 72 -27 135 -50 63 -23 175 -73 248 -111 l133 -69
201 0 201 0 -7 41 c-9 54 -28 91 -72 133 -65 64 -85 66 -493 65 -203 0 -357
-4 -346 -9z"/>
<path d="M8719 4261 c-16 -16 -29 -39 -29 -51 0 -11 12 -78 27 -148 26 -119
27 -143 28 -382 0 -242 -1 -262 -28 -393 -16 -76 -26 -149 -23 -162 10 -41 45
-65 92 -65 76 0 100 51 141 305 22 136 22 471 0 615 -28 181 -47 252 -78 282
-39 39 -90 38 -130 -1z"/>
<path d="M6175 4244 c-787 -106 -1445 -651 -1690 -1399 -186 -567 -123 -1179
174 -1687 168 -288 383 -513 666 -697 606 -395 1381 -441 2032 -122 613 301
1022 853 1140 1536 12 74 17 157 17 320 0 241 -11 332 -64 531 -214 807 -903
1411 -1733 1519 -143 18 -404 18 -542 -1z m549 -200 c514 -73 987 -371 1278
-803 212 -317 318 -663 318 -1046 0 -309 -61 -566 -201 -843 -239 -474 -670
-825 -1181 -962 -171 -45 -301 -62 -488 -62 -388 0 -723 102 -1045 317 -208
139 -367 298 -506 504 -216 320 -318 656 -319 1043 0 188 19 333 64 500 142
514 492 939 975 1179 338 168 721 228 1105 173z"/>
<path d="M6340 3283 l0 -648 110 0 110 0 0 648 0 647 -110 0 -110 0 0 -647z"/>
<path d="M6102 3899 c-153 -32 -279 -76 -427 -150 -119 -59 -315 -183 -315
-199 0 -3 205 -210 455 -460 l455 -455 0 643 0 642 -37 -1 c-21 0 -80 -9 -131
-20z"/>
<path d="M6630 3278 l0 -643 457 457 c438 438 457 458 438 473 -136 106 -356
223 -525 279 -110 37 -286 76 -339 76 l-31 0 0 -642z"/>
<path d="M5222 3427 c-39 -40 -72 -77 -72 -82 0 -6 205 -215 455 -465 l455
-455 17 25 c22 32 81 91 113 113 l25 17 -460 460 -460 460 -73 -73z"/>
<path d="M7145 3040 l-459 -459 30 -23 c39 -30 75 -67 99 -101 l20 -27 460
460 460 460 -75 75 -75 75 -460 -460z"/>
<path d="M5035 3209 c-157 -218 -283 -530 -310 -766 l-7 -63 643 0 644 0 -455
455 c-250 250 -455 455 -456 455 0 0 -27 -36 -59 -81z"/>
<path d="M7349 2834 l-454 -454 643 0 643 0 -6 58 c-11 89 -70 308 -110 407
-55 136 -162 322 -240 417 l-22 26 -454 -454z"/>
<path d="M6374 2560 c-107 -21 -209 -103 -260 -206 -26 -53 -29 -69 -29 -159
0 -89 3 -106 28 -157 116 -236 418 -287 600 -102 26 26 60 73 75 103 24 50 27
67 27 156 0 89 -3 106 -28 157 -52 106 -150 182 -265 207 -59 12 -88 13 -148
1z m206 -126 c91 -50 140 -133 140 -240 0 -156 -116 -270 -275 -268 -153 1
-268 115 -267 267 0 210 218 341 402 241z"/>
<path d="M6397 2356 c-162 -59 -153 -281 13 -326 115 -31 226 75 207 196 -16
98 -128 163 -220 130z"/>
<path d="M4710 2195 l0 -105 648 0 647 0 0 105 0 105 -647 0 -648 0 0 -105z"/>
<path d="M6895 2195 l0 -105 648 0 647 0 0 105 0 105 -647 0 -648 0 0 -105z"/>
<path d="M4724 1953 c32 -268 171 -597 354 -830 l17 -23 455 455 455 455 -644
0 -643 0 6 -57z"/>
<path d="M7349 1556 l454 -454 22 26 c78 95 185 281 240 417 40 99 99 318 110
408 l6 57 -643 0 -643 0 454 -454z"/>
<path d="M5602 1507 c-248 -248 -452 -457 -452 -462 0 -6 33 -43 73 -83 l72
-72 460 460 460 460 -25 17 c-30 20 -120 114 -120 125 0 4 -3 8 -8 8 -4 0
-211 -204 -460 -453z"/>
<path d="M6817 1937 c-19 -29 -54 -65 -96 -100 l-34 -29 459 -459 459 -459 73
73 c40 39 71 77 70 84 -2 6 -208 214 -459 462 -447 441 -457 450 -472 428z"/>
<path d="M6340 1108 l0 -648 110 0 110 0 0 648 0 647 -110 0 -110 0 0 -647z"/>
<path d="M5813 1301 c-249 -247 -453 -453 -453 -457 1 -22 222 -163 353 -224
154 -72 427 -150 526 -150 l31 0 0 640 c0 352 -1 640 -2 640 -2 -1 -207 -203
-455 -449z"/>
<path d="M6630 1112 l0 -642 31 0 c110 0 382 81 554 165 108 52 276 158 308
193 15 17 -10 44 -438 472 l-455 455 0 -643z"/>
<path d="M8436 4209 c-31 -37 -32 -48 -7 -147 32 -124 44 -237 43 -397 0 -158
-9 -232 -44 -381 -19 -80 -20 -96 -8 -124 26 -62 105 -76 155 -26 23 23 51
123 77 276 16 96 16 432 0 530 -41 246 -67 300 -146 300 -37 0 -48 -5 -70 -31z"/>
<path d="M8994 4213 c-30 -33 -30 -56 7 -218 20 -87 23 -128 23 -320 0 -194
-2 -232 -22 -320 -43 -184 -40 -210 19 -241 57 -29 119 4 139 73 74 259 85
585 29 858 -25 118 -34 143 -61 173 -32 34 -101 31 -134 -5z"/>
<path d="M265 4220 c-156 -34 -265 -264 -265 -560 0 -248 78 -454 199 -532
123 -77 261 6 334 201 18 48 26 58 37 51 26 -16 57 -11 88 15 29 24 29 24 47
5 10 -11 30 -20 45 -20 16 0 30 -7 34 -15 5 -13 225 -15 1899 -15 l1894 0 38
58 c128 193 245 319 500 536 l30 25 -2182 1 c-1934 0 -2183 -2 -2183 -15 0
-10 -10 -15 -30 -15 -18 0 -37 -8 -47 -19 -16 -20 -17 -19 -46 5 -30 25 -61
30 -86 15 -12 -8 -21 5 -42 59 -60 154 -164 241 -264 220z m27 -147 c24 -21
23 -36 -6 -86 -49 -84 -71 -181 -69 -307 1 -123 19 -212 68 -334 28 -70 27
-101 -6 -111 -38 -12 -57 4 -88 80 -96 230 -101 484 -13 677 43 96 74 118 114
81z m4506 -263 l-43 -50 -1430 0 c-1100 0 -1434 3 -1443 12 -19 19 -14 55 10
72 20 14 178 16 1486 16 l1463 0 -43 -50z"/>
<path d="M8094 4163 c7 -16 17 -43 21 -60 l7 -33 89 0 90 0 -18 31 c-10 18
-36 45 -57 60 -31 23 -49 29 -93 29 l-54 0 15 -27z"/>
<path d="M7760 3963 c1 -5 28 -28 62 -53 137 -100 414 -407 478 -529 18 -35
27 -16 39 84 18 146 11 371 -14 483 l-5 22 -280 0 c-154 0 -280 -3 -280 -7z"/>
<path d="M9424 3831 c-104 -47 -134 -177 -62 -265 72 -88 190 -89 265 -3 76
86 45 220 -61 268 -52 23 -90 24 -142 0z"/>
<path d="M2480 3243 c0 -5 13 -31 30 -59 54 -95 148 -154 272 -170 46 -6 58
-13 91 -50 44 -50 118 -88 201 -103 39 -7 270 -11 666 -11 l607 0 38 103 c21
56 60 146 86 200 l49 97 -1020 0 c-561 0 -1020 -3 -1020 -7z m1841 -150 l-19
-48 -543 -3 c-299 -2 -569 0 -598 4 -44 5 -62 13 -88 39 -18 18 -33 38 -33 44
0 8 184 11 650 11 l650 0 -19 -47z"/>
<path d="M3950 2662 c0 -99 22 -309 46 -427 68 -344 172 -640 356 -1008 l109
-218 50 27 c27 15 48 30 47 33 -2 3 -37 76 -80 161 -107 217 -168 409 -203
636 -23 147 -30 388 -16 529 12 111 44 306 57 340 5 12 -5 15 -54 15 l-60 0
-21 -112 c-27 -147 -41 -278 -41 -407 0 -57 -2 -102 -5 -100 -13 14 -57 305
-67 450 l-12 169 -53 0 -53 0 0 -88z"/>
<path d="M8646 2048 c-2 -7 -9 -60 -16 -118 -20 -183 -82 -424 -146 -568 -13
-30 -22 -57 -19 -60 6 -6 3756 -1162 3770 -1162 12 0 621 608 615 613 -3 2
-754 235 -1670 517 -916 282 -1702 526 -1747 542 -138 50 -197 106 -209 201
l-7 47 -284 0 c-218 0 -284 -3 -287 -12z m576 -403 c415 -128 425 -131 443
-159 22 -34 21 -64 -4 -154 -26 -91 -60 -132 -109 -132 -34 0 -749 218 -779
238 -13 8 -28 31 -34 51 -9 31 -6 49 18 126 24 76 34 93 62 112 19 13 40 23
47 23 8 0 168 -47 356 -105z m1284 -395 c417 -128 408 -125 429 -156 21 -32
19 -73 -7 -157 -25 -85 -61 -127 -108 -127 -17 0 -198 52 -403 115 -451 138
-441 131 -396 287 30 103 62 144 115 147 7 1 173 -49 370 -109z m1280 -394
c203 -63 377 -117 387 -121 21 -9 47 -56 47 -86 0 -13 -11 -60 -25 -105 -28
-92 -56 -124 -109 -124 -44 0 -764 225 -787 246 -32 29 -34 76 -5 167 28 93
61 132 112 136 6 1 177 -50 380 -113z"/>
<path d="M8852 1587 c-10 -34 -16 -65 -13 -69 5 -6 688 -218 702 -218 9 0 43
119 36 126 -5 6 -199 67 -624 197 l-82 25 -19 -61z"/>
<path d="M10121 1197 c-12 -33 -18 -64 -14 -68 8 -7 688 -219 703 -219 9 0 44
120 37 127 -3 2 -157 51 -344 109 -186 57 -343 106 -350 108 -7 3 -20 -20 -32
-57z"/>
<path d="M11405 857 c-2 -7 -10 -34 -19 -61 -9 -28 -13 -53 -9 -57 15 -14 697
-219 704 -212 11 13 42 114 36 120 -3 2 -151 49 -329 104 -178 55 -336 104
-351 109 -20 7 -29 6 -32 -3z"/>
<path d="M12655 410 c-121 -121 -213 -220 -205 -220 8 0 69 9 134 19 l120 20
145 145 146 146 -55 55 c-30 30 -57 55 -60 55 -3 0 -104 -99 -225 -220z"/>
</g>
</svg>
