<svg width="90" height="90" viewBox="0 0 90 90" fill="none" xmlns="http://www.w3.org/2000/svg">
<rect width="90" height="90" fill="black"/>
<g clip-path="url(#clip0_383_14710)">
<path d="M34.7453 48.4606L39.4451 45.7775C39.355 45.3274 39.373 44.8592 39.4451 44.409L34.7273 41.744C33.8629 43.9048 33.8809 46.2997 34.7273 48.4606" fill="#E6E6F1"/>
<path d="M36.1868 39.2232L40.9046 41.8882C41.2647 41.6001 41.6789 41.366 42.111 41.2039V35.8739C39.7701 36.216 37.6633 37.4225 36.1868 39.2412" fill="#E6E6F1"/>
<path d="M45.0813 35.8739V41.2399C45.5135 41.402 45.9096 41.6001 46.2697 41.9062L51.0055 39.2412C49.529 37.4225 47.4222 36.234 45.0993 35.8919" fill="#E6E6F1"/>
<path d="M53.0577 44.1209C52.9677 43.2926 52.7696 42.5003 52.4635 41.744L47.7277 44.409C47.7637 44.6251 47.7817 44.8592 47.7817 45.0753C47.7817 45.1653 47.7817 45.2553 47.7817 45.3454L53.0577 44.1209Z" fill="#E6E6F1"/>
<path d="M77.6377 39.8534V34.5234H51.0056C53.9587 36.5221 56.0295 39.6913 56.5337 43.3467L61.0894 42.2843C62.0978 42.0682 62.53 41.384 62.638 40.7717L77.6557 39.8714L77.6377 39.8534Z" fill="#E6E6F1"/>
<path d="M27.0565 50.9815C24.8056 52.8002 21.0962 54.4568 19.0074 54.997C16.9186 55.5372 15.244 55.8613 12.3629 55.8613V57.3379C14.7398 57.3379 16.7926 57.3379 20.1598 56.8517C24.3194 56.2575 28.9652 54.6009 32.8006 52.296C31.7742 50.8374 31.072 49.1808 30.7298 47.3621C29.6854 48.6226 28.407 49.9011 27.0384 50.9995" fill="#E6E6F1"/>
<path d="M24.4458 42.2843C23.0953 42.2843 21.9608 41.2399 21.4926 39.7813H20.3582C20.0701 39.7813 19.6379 39.4392 19.6379 38.3948C19.6379 37.3504 20.0701 37.0083 20.3582 37.0083H21.4926C21.9428 35.5497 23.0953 34.5053 24.4458 34.5053H36.1682C33.5392 36.288 31.5945 39.007 30.8562 42.1762C28.4433 42.2663 25.7423 42.3023 24.4458 42.3023" fill="#E6E6F1"/>
<path d="M43.5878 32.8848C36.7272 32.8848 31.1631 38.3408 31.1631 45.0754C31.1631 51.8099 36.7272 57.266 43.5878 57.266C50.4484 57.266 56.0125 51.8099 56.0125 45.0754C56.0125 38.3408 50.4484 32.8848 43.5878 32.8848ZM44.4161 35.1356C47.5313 35.3877 50.2683 37.0083 51.9429 39.4032L46.1627 42.6805C45.6946 42.1943 45.1003 41.8522 44.4161 41.6901V35.1356ZM42.7775 35.1356V41.6901C42.0932 41.8522 41.481 42.1943 41.0308 42.6805L35.2506 39.4032C36.9432 37.0083 39.6623 35.3697 42.7955 35.1356M34.4223 49.379C33.1438 46.75 33.0718 43.6168 34.4043 40.8258L40.1845 44.085C39.9864 44.7513 39.9864 45.4355 40.1845 46.0838L34.4043 49.379H34.4223ZM35.6648 51.3057C35.5387 51.1437 35.4127 50.9816 35.2866 50.8196L41.0848 47.5243C41.0848 47.5243 41.2289 47.6504 41.3009 47.7224C41.697 48.0465 42.1652 48.2986 42.6874 48.4247V55.0152C39.8423 54.7631 37.3394 53.3765 35.6648 51.3057ZM43.5878 46.8581C42.5974 46.8581 41.7871 46.0658 41.7871 45.0934C41.7871 44.121 42.5974 43.3287 43.5878 43.3287C44.5781 43.3287 45.3884 44.121 45.3884 45.0934C45.3884 46.0658 44.5781 46.8581 43.5878 46.8581ZM44.5061 55.0152V48.4247C45.1183 48.2626 45.6766 47.9565 46.1087 47.5243L51.9069 50.8196C50.2323 53.1605 47.5673 54.7451 44.5061 55.0152ZM47.0091 45.9937C47.1891 45.3455 47.1711 44.6612 46.9911 44.085L52.7712 40.8078C54.2118 43.7429 53.9237 46.9841 52.8073 49.271L47.0091 45.9757V45.9937Z" fill="#E6E6F1"/>
<path d="M44.758 45.0753C44.758 44.445 44.2358 43.9409 43.5876 43.9409C42.9393 43.9409 42.4171 44.445 42.4171 45.0753C42.4171 45.7055 42.9393 46.2097 43.5876 46.2097C44.2358 46.2097 44.758 45.7055 44.758 45.0753Z" fill="#E6E6F1"/>
</g>
<defs>
<clipPath id="clip0_383_14710">
<rect width="65.2747" height="24.4533" fill="white" transform="translate(12.3633 32.8848)"/>
</clipPath>
</defs>
</svg>
