<?xml version="1.0" encoding="UTF-8"?>
<svg id="CREST" xmlns="http://www.w3.org/2000/svg" version="1.1" viewBox="0 0 291 107">
  <!-- Generator: Adobe Illustrator 29.0.1, SVG Export Plug-In . SVG Version: 2.1.0 Build 192)  -->
  <g>
    <path d="M63.77,34.6h0s-7.22-.57-7.22-.57l-.05.58c-.32,4.11,2.75,7.71,6.86,8.04l28.44,2.25.74.17c.78-2.71,1.81-5.37,3.05-7.92l-31.83-2.53Z"/>
    <path d="M173.61,50.81l-22.42,7.29c-.11-1.9-.72-3.74-1.75-5.36l22.43-7.29c.72,1.72,1.3,3.51,1.74,5.35"/>
    <path d="M166.96,37.18l-4.93-.39,2.04-2.81c1.03,1,2,2.07,2.89,3.19"/>
  </g>
  <polygon points="170.2 43.55 153.47 48.99 159.91 40.12 170.2 43.55"/>
  <g>
    <path d="M148.88,58.75c0,2.45-.99,4.66-2.6,6.26-1.61,1.6-3.82,2.6-6.27,2.6-4.89,0-8.86-3.97-8.86-8.86,0-4.89,3.98-8.86,8.86-8.86h0c4.89,0,8.87,3.98,8.87,8.86"/>
    <path d="M156.15,28.19l-4.95,6.82-.56-.19-5.73-1.91v-8.39c4.01.57,7.79,1.84,11.24,3.67"/>
  </g>
  <polygon points="149.68 36.7 145.14 42.95 145.14 35.19 149.68 36.7"/>
  <g>
    <path d="M136.65,2.73c.23-.16.26-.4.21-.58-.05-.17-.2-.37-.47-.39l-13.92-1.1c-.51-.04-1.02.09-1.45.36l-13.44,8.47,17.55,1.39,11.53-8.14Z"/>
    <path d="M193.08,44.67h0c2.66.22,5.01-1.82,5.21-4.45l1.3-16.52c.1-1.29-.31-2.54-1.15-3.53-.84-.98-2.01-1.58-3.3-1.68-.13-.01-.26-.02-.39-.02-2.51,0-4.63,1.96-4.83,4.47l-1.3,16.52c-.21,2.66,1.79,5,4.45,5.21"/>
    <path d="M208.78,32.74c.16-2.08-.49-4.1-1.85-5.68-1.3-1.53-3.1-2.48-5.09-2.69l-1.23,15.55c.13,0,.26.01.39.01,4.04,0,7.45-3.16,7.77-7.19"/>
    <path d="M184.05,20.98l3.64.29c.13-1.89-1.29-3.54-3.19-3.69l-5.67-.45.02-.23c.13-1.79-1.22-3.36-3.01-3.5-1.79-.14-3.36,1.2-3.52,2.98l-.02.23-7.47-.59c1.99,1.16,3.9,2.46,5.7,3.88l13.51,1.07Z"/>
    <path d="M142.82,47.93c-1.84-.48-3.79-.48-5.64,0v-23.66c.93-.08,1.87-.12,2.82-.12s1.89.04,2.82.12v23.65Z"/>
    <path d="M122.16,12.66l-56.5-4.46v-.22c.1-1.78-1.22-3.29-3-3.43-1.78-.14-3.32,1.14-3.51,2.92l-.02.22-5.64-.44c-1.9-.15-3.55,1.28-3.72,3.14l66.17,5.22c2.01-1.13,4.1-2.11,6.23-2.94"/>
    <path d="M113.06,17.35L16.43,9.73h-.02S3.39,6.73,3.39,6.73c-.07-.02-.15-.03-.23-.03-.52,0-.96.41-1,.92L.79,25.15c-.02.28.07.55.26.76.2.22.5.33.8.32l14.29-.95h.02s23.73,1.87,23.73,1.87h.02s16.36,4.53,16.36,4.53l40.5,3.19c3.91-7.06,9.53-13.11,16.29-17.53"/>
    <path d="M174.93,23.82c4.3,4.3,7.74,9.28,10.21,14.79l1.25.1,1.22-15.48-14.51-1.14c.64.57,1.25,1.15,1.82,1.73"/>
    <path d="M162.52,32.56l-13.87,19.11c-1.21-1.48-2.77-2.62-4.54-3.32l13.87-19.11c1.6.98,3.12,2.1,4.54,3.32"/>
    <path d="M210.16,79.76l2.84,1.04,1.88-5.11-17.03-6.26c-.42,1.15-.83,2.25-1.23,3.36l-.64,1.75c5.18,1.9,9.34,3.43,14.19,5.21"/>
    <path d="M174.53,58.75c0,1.93-.16,3.83-.47,5.67l-17.42-5.66,17.43-5.66c.31,1.84.46,3.72.46,5.65"/>
    <path d="M140,95.51c-20.21,0-36.66-16.49-36.66-36.75,0-20.27,16.44-36.76,36.66-36.76s36.69,16.49,36.69,36.75c0,20.27-16.46,36.76-36.69,36.76M173.45,25.3c-8.96-8.96-20.83-13.89-33.42-13.89h0c-26.09,0-47.31,21.23-47.31,47.32,0,26.09,21.23,47.31,47.32,47.31h0c26.09,0,47.31-21.23,47.31-47.32,0-12.59-4.93-24.46-13.9-33.42"/>
    <path d="M135.09,24.52v7.55l-9-.79-2.24-3.08c3.44-1.84,7.23-3.11,11.24-3.68"/>
    <path d="M232.22,87.87c3.13,1.15,6.19,2.27,9.72,3.57l.47-1.28c.47-1.3.93-2.54,1.4-3.83l-7.98-2.93c-2.91-1.07-5.78-2.12-9.05-3.33-.64,1.75-1.24,3.41-1.86,5.12l7.31,2.68Z"/>
    <path d="M272.06,96.73c-1.5,2.73-4.4,4.43-7.57,4.43-.76,0-1.52-.1-2.25-.3-.57-.15-1.1-.35-1.61-.54l-9.22-3.4,3.19-8.65,18.39,6.77-.93,1.69ZM243.19,94.13l-20.96-7.7,3.3-9.05,20.97,7.7-3.31,9.05ZM214.25,83.49l-20.96-7.71,3.31-9.04,20.97,7.71-3.32,9.04ZM290.21,98.77c-.08-.98-.71-1.81-1.63-2.16l-3.72-1.4c-25.1-9.25-50.64-18.63-75.33-27.7l-19.5-7.17c-.19-.07-.39-.14-.6-.2-.16,5.82-1.34,11.49-3.49,16.87.19.08.36.16.53.22,23.92,8.8,57.24,21.01,68.76,25.24,13.38,4.91,21.43,5.88,33.74-1.3.85-.49,1.32-1.41,1.24-2.39"/>
    <path d="M162.51,84.96c-1.42,1.22-2.94,2.34-4.54,3.32l-13.88-19.11c1.77-.69,3.33-1.83,4.55-3.31l13.87,19.1Z"/>
    <path d="M254.92,96.19c2.02.75,3.97,1.47,5.93,2.19.14.05.28.1.42.16.47.18.97.36,1.46.49.57.16,1.16.23,1.76.23,2.39,0,4.58-1.22,5.78-3.21l-14.54-5.35-1.88,5.09,1.08.4Z"/>
    <path d="M173.6,66.72c-.43,1.85-1.02,3.63-1.74,5.35l-22.43-7.29c1.03-1.61,1.63-3.44,1.75-5.35l22.42,7.28Z"/>
    <path d="M135.91,48.35c-1.75.7-3.35,1.86-4.54,3.32l-13.88-19.1c1.42-1.23,2.93-2.34,4.54-3.32l13.89,19.11Z"/>
    <path d="M142.83,93.24c-.93.08-1.87.12-2.82.12s-1.89-.04-2.81-.12v-23.66c1.79.46,3.83.46,5.63,0v23.65Z"/>
    <path d="M126.55,49l-17.42-5.66c1.71-3.42,3.96-6.52,6.65-9.18l10.78,14.84Z"/>
  </g>
  <polygon points="134.87 42.95 128.03 33.55 134.86 34.15 134.87 42.95"/>
  <g>
    <path d="M130.58,52.75c-1.03,1.61-1.62,3.44-1.74,5.35l-22.43-7.28c.43-1.84,1.02-3.64,1.73-5.35l22.43,7.28Z"/>
    <path d="M135.93,69.17l-13.88,19.12c-1.6-.99-3.12-2.1-4.54-3.33l13.87-19.1c1.21,1.48,2.78,2.61,4.55,3.31"/>
    <path d="M130.6,64.79l-22.43,7.29c-.72-1.72-1.3-3.5-1.74-5.35l22.42-7.29c.11,1.9.71,3.74,1.74,5.35"/>
  </g>
</svg>