<?xml version="1.0" encoding="utf-8"?>
<!-- Generator: Adobe Illustrator 25.2.3, SVG Export Plug-In . SVG Version: 6.00 Build 0)  -->
<svg version="1.1" id="Layer_1" xmlns="http://www.w3.org/2000/svg" xmlns:xlink="http://www.w3.org/1999/xlink" x="0px" y="0px"
	 viewBox="0 0 436.6 195.8" style="enable-background:new 0 0 436.6 195.8;" xml:space="preserve">
<style type="text/css">
	.st0{fill:#00D287;}
</style>
<g>
	<g>
		<g>
			<g>
				<path class="st0" d="M233,56.4c-5.4,0-9.2,4.1-9.2,10.2v49.2c0,6.1,3.8,10.2,9.2,10.2s9.2-4.1,9.2-10.2V66.6
					C242.2,60.5,238.3,56.4,233,56.4z"/>
				<path class="st0" d="M259,26.7c-5.4,0-9.2,4.1-9.2,10.2v78.9c0,6.1,3.8,10.2,9.2,10.2s9.2-4.1,9.2-10.2V36.9
					C268.2,30.8,264.3,26.7,259,26.7z"/>
				<path class="st0" d="M383.8,55.6c-5.8,0-12.9,1.7-16.8,6.4h-0.3V36.9c0-6.1-3.8-10.2-9.2-10.2c-5.4,0-9.2,4.1-9.2,10.2v78.9
					c0,6.1,3.8,10.2,9.2,10.2c5.4,0,9.2-4.1,9.2-10.2V83.7c0-7.2,4.2-12.7,11.8-12.7c6.7,0,12,4.1,12,12.7v32.2
					c0,6.1,3.8,10.2,9.2,10.2c5.4,0,9.2-4.1,9.2-10.2V80.5C409,64.9,398.2,55.6,383.8,55.6z"/>
				<path class="st0" d="M337,99.9c-4.2-3.3-10.2-2.5-13.5,1.7c-3.1,3.9-7.6,6.2-12.6,6.2c-8.8,0-15.9-7.2-15.9-15.9
					S302.2,76,310.9,76c4.6,0,9,2,12.1,5.5c3.5,4,9.5,4.5,13.6,1c4-3.5,4.5-9.5,1-13.6c-6.7-7.7-16.4-12.2-26.6-12.2
					c-19.4,0-35.2,15.8-35.2,35.2s15.8,35.2,35.2,35.2c10.9,0,21.1-5,27.8-13.6C341.9,109.2,341.2,103.2,337,99.9z"/>
				<path class="st0" d="M213.3,72c0.1-0.1,0.1-0.1,0.2-0.2c0.1-0.1,0.2-0.2,0.3-0.3c0.1-0.1,0.2-0.2,0.3-0.3
					c0.1-0.1,0.2-0.2,0.3-0.3c0.1-0.1,0.2-0.2,0.3-0.4c0.1-0.1,0.1-0.2,0.2-0.3c0.1-0.1,0.2-0.2,0.2-0.4c0.1-0.1,0.1-0.2,0.2-0.3
					c0.1-0.1,0.1-0.2,0.2-0.4c0.1-0.1,0.1-0.3,0.2-0.4c0-0.1,0.1-0.2,0.1-0.4c0-0.1,0.1-0.3,0.1-0.4s0.1-0.2,0.1-0.4
					c0-0.1,0.1-0.3,0.1-0.4s0-0.3,0.1-0.4c0-0.1,0-0.3,0.1-0.4c0-0.2,0-0.3,0-0.5c0-0.1,0-0.2,0-0.3v-0.1c0-0.2,0-0.3,0-0.5
					c0-0.1,0-0.2,0-0.4c0-0.2,0-0.3-0.1-0.5c0-0.1,0-0.2-0.1-0.4c0-0.1-0.1-0.3-0.1-0.4c0-0.1-0.1-0.3-0.1-0.4
					c0-0.1-0.1-0.3-0.1-0.4c0-0.1-0.1-0.3-0.1-0.4c-0.1-0.1-0.1-0.2-0.2-0.3c-0.1-0.1-0.1-0.3-0.2-0.4c-0.1-0.1-0.1-0.2-0.2-0.3
					c-0.1-0.1-0.2-0.3-0.3-0.4c-0.1-0.1-0.1-0.2-0.2-0.3c-0.1-0.1-0.2-0.3-0.3-0.4c0,0,0,0-0.1-0.1s-0.1-0.1-0.2-0.2
					c-0.1-0.1-0.2-0.2-0.3-0.3s-0.2-0.2-0.3-0.3s-0.2-0.2-0.3-0.3s-0.2-0.2-0.4-0.3c-0.1-0.1-0.2-0.1-0.3-0.2
					c-0.1-0.1-0.3-0.2-0.4-0.2c-0.1-0.1-0.2-0.1-0.3-0.2c-0.1-0.1-0.3-0.1-0.4-0.2c-0.1-0.1-0.3-0.1-0.4-0.2c-0.1,0-0.2-0.1-0.4-0.1
					c-0.1,0-0.3-0.1-0.4-0.1c-0.1,0-0.2-0.1-0.4-0.1c-0.1,0-0.3-0.1-0.4-0.1c-0.1,0-0.3,0-0.4-0.1c-0.1,0-0.3,0-0.4-0.1
					c-0.2,0-0.3,0-0.5,0c-0.1,0-0.2,0-0.3,0h-38.9c-4.7,0-8.4,3.8-8.4,8.4s3.8,8.4,8.4,8.4H187c-19.2,21.4-25.8,40.2-26.2,41.2v0.1
					c-0.1,0.2-0.1,0.3-0.1,0.5c0,0.1-0.1,0.2-0.1,0.3c0,0.1-0.1,0.3-0.1,0.4s-0.1,0.3-0.1,0.4s0,0.2,0,0.3c0,0.2,0,0.4,0,0.5
					c0,0,0,0.2,0,0.3c0,0.2,0,0.4,0,0.5s0,0.2,0,0.3c0,0.2,0,0.3,0.1,0.5c0,0.1,0.1,0.3,0.1,0.4s0.1,0.3,0.1,0.4s0.1,0.3,0.1,0.4
					s0.1,0.2,0.1,0.3c0.1,0.1,0.1,0.3,0.2,0.4c0,0.1,0.1,0.2,0.1,0.3c0.1,0.1,0.1,0.3,0.2,0.4c0.1,0.1,0.1,0.2,0.2,0.3
					c0.1,0.1,0.2,0.2,0.2,0.3c0.1,0.1,0.2,0.2,0.2,0.3c0.1,0.1,0.2,0.2,0.2,0.3c0.1,0.1,0.2,0.2,0.3,0.3c0.1,0.1,0.2,0.2,0.2,0.2
					c0.1,0.1,0.2,0.2,0.4,0.3c0.1,0.1,0.2,0.1,0.3,0.2s0.2,0.2,0.4,0.3c0.1,0.1,0.2,0.1,0.3,0.2s0.2,0.1,0.4,0.2
					c0.1,0.1,0.3,0.1,0.4,0.2c0.1,0.1,0.2,0.1,0.3,0.1c0.2,0.1,0.3,0.1,0.5,0.2c0.1,0,0.1,0.1,0.2,0.1h0.1c0.1,0,0.2,0.1,0.4,0.1
					c0.1,0,0.3,0.1,0.4,0.1c0.1,0,0.2,0,0.3,0.1c0.2,0,0.4,0.1,0.5,0.1s0.1,0,0.2,0c0.3,0,0.5,0,0.8,0c0,0,0,0,0.1,0h38.8
					c4.7,0,8.4-3.8,8.4-8.4s-3.8-8.4-8.4-8.4H182C187.5,100,197.2,85.8,213.3,72z"/>
			</g>
		</g>
	</g>
</g>
<path class="st0" d="M28.1,60c22.6-13.8,45.2-27.7,67.7-41.5c1.8-1.1,4.1-0.9,5.7,0.5c9,8.1,18.1,16.2,27.1,24.3
	c1.6,1.4,2.1,3.7,1.2,5.6C119.9,70.3,110,91.7,100,113c-1.1,2.4,0.3,5.2,2.8,5.8c9.8,2.3,19.6,4.5,29.4,6.8c3.2,0.7,4,4.8,1.4,6.7
	c-22.2,16.3-44.5,32.6-66.7,48.9c-2.3,1.7-5.4,1.8-7.8,0.2c-10.6-6.9-21.2-13.8-31.8-20.7c-2-1.3-2.8-3.9-1.7-6.1
	C34.7,135.3,43.9,116,53,96.8c0.9-2,0.5-4.3-1-5.9c-8.2-8.2-16.4-16.4-24.6-24.5C25.5,64.6,25.9,61.4,28.1,60z"/>
</svg>
