<?xml version="1.0" encoding="UTF-8"?>
<svg id="Layer_2" data-name="Layer 2" xmlns="http://www.w3.org/2000/svg" xmlns:xlink="http://www.w3.org/1999/xlink" viewBox="0 0 4896 3278.78">
  <defs>
    <style>
      .cls-1 {
        fill: none;
      }

      .cls-1, .cls-2, .cls-3 {
        stroke-width: 0px;
      }

      .cls-2 {
        fill: url(#New_Pattern_Swatch_3);
      }

      .cls-3 {
        fill: #83232f;
      }
    </style>
    <pattern id="New_Pattern_Swatch_3" data-name="New Pattern Swatch 3" x="0" y="0" width="238.91" height="256.24" patternTransform="translate(-321.88 5765.67)" patternUnits="userSpaceOnUse" viewBox="0 0 238.91 256.24">
      <g>
        <rect class="cls-1" width="238.91" height="256.24"/>
        <path class="cls-3" d="M197.88,395.33c2.83-6.16,1.2-10.21-.27-12.28,1.33-1.43,1.76-2.93,1.86-4.06.37-4.3-3.4-8.09-3.83-8.51-.6-.58-1.52-.69-2.24-.25-.72.44-1.05,1.3-.8,2.11.33,1.11.28,2.02-.18,2.78-.9,1.49-3.17,2.25-4.06,2.45-6.7.62-11.71-.43-14.52-3.03-2.53-2.35-2.51-5.2-2.51-5.38,0-12.87,24.42-13.93,24.6-13.94,11.41,0,18.74,2.45,21.2,7.07,3.21,6.05-2.36,14.42-2.42,14.5-.5.73-.4,1.71.22,2.34l4.31,4.3c.41.41.97.6,1.55.52.57-.08,1.07-.41,1.35-.91,4.68-8.18,32.43-28.13,32.71-28.34.42-.3.7-.77.76-1.29.06-.52-.11-1.04-.46-1.43l-4.93-5.54c-.57-.64-1.51-.8-2.26-.39l-5.56,3.03c-4.59-4.25-12.52-7.41-17.78-9.16l.51-.45h38.9c6.61,10.57,16.25,26.52,17.07,29.42.71,2.45-2.35,9.27-4.74,13.33-.4.67-.33,1.52.17,2.12l3.09,3.69c.33.4.82.64,1.34.66.52.02,1.02-.18,1.39-.55l34.75-35.38c.71-.72.7-1.88-.01-2.6l-2.77-2.75c-.65-.65-1.67-.72-2.4-.17-3.25,2.43-7.8.72-9.24.08l-40.93-75.76c-3.24-6.03-3.86-10.69-1.83-13.86,4.03-6.31,17.19-5.59,17.33-5.59.89.07,1.71-.55,1.91-1.43.2-.88-.27-1.78-1.11-2.11-12.6-5.09-22.73-5.72-30.13-1.89-5.04,2.61-7.47,6.65-8.54,9.09-7.24-3.1-14.09-3.44-20.39-1-12.5,4.85-18.16,18.85-18.4,19.44-.35.89.04,1.91.9,2.33.86.42,1.9.12,2.4-.71,1.85-3.1,7.05-7.72,13.79-7.72,4.6,0,14.27,14.73,20.02,25.73l-28.62,42.64c-25.07-3.01-36.98,5.21-40.96,8.93-5.78,5.39-8.42,12.81-7.84,22.04,1.29,20.73,23.53,20.38,24.89,20.35,7.05.02,9.2,6.99,9.28,7.28.21.74.86,1.27,1.63,1.33.05,0,.09,0,.14,0,.71,0,1.37-.42,1.67-1.07ZM185.04,384.1c-.82.04-20,.74-21.1-16.9-.5-8.08,1.74-14.51,6.68-19.11,7.63-7.12,22.25-10.05,39.1-7.83.7.08,1.38-.22,1.77-.8l29.86-44.48c.37-.56.42-1.27.11-1.87-2.45-4.79-15.11-28.7-23.79-28.7-2.93,0-5.56.67-7.83,1.69,2.6-3.12,6.09-6.22,10.49-7.92,5.83-2.25,12.32-1.67,19.28,1.73.5.25,1.09.25,1.6,0,.51-.24.88-.7,1-1.24.01-.06,1.39-5.65,7.39-8.75,4.73-2.45,10.95-2.71,18.54-.8-4.25.87-8.87,2.71-11.33,6.56-2.8,4.38-2.24,10.3,1.69,17.6l41.22,76.29c.17.31.43.57.74.74.29.16,6.75,3.59,12.3.72l.44.43-32.04,32.63-.96-1.15c1.78-3.2,5.66-10.9,4.46-15.08-1.26-4.42-16.32-28.49-18.03-31.22-.34-.54-.93-.86-1.56-.86h-40.61c-.45,0-.88.16-1.21.46l-3.5,3.06c-.51.44-.73,1.13-.59,1.78s.63,1.18,1.28,1.37c3.55,1.05,15.52,4.87,20.29,10.14.57.63,1.5.79,2.25.38l5.49-2.99,2.6,2.93c-5.74,4.19-24.42,18.13-30.77,26.34l-1.71-1.71c1.7-3.01,5.21-10.58,1.83-16.97-3.18-6-11.4-9.04-24.52-9.04h0c-.28,0-6.94.27-13.71,2.42-11.99,3.8-14.51,10.36-14.51,15.14,0,.18-.12,4.55,3.61,8.07,3.66,3.45,9.56,4.82,17.55,4.07.06,0,.11-.01.17-.02.47-.09,4.65-.96,6.59-4.16,0,0,.01-.02.02-.03.18.56.28,1.13.23,1.67-.09,1.01-.7,1.89-1.85,2.67-.48.33-.77.88-.8,1.46-.02.59.25,1.16.7,1.52.11.09,2.1,1.73,1.85,5.24-2.08-2.82-5.52-5.48-10.58-5.48-.03,0-.06,0-.09,0ZM262.95,329.92c.33-.57.33-1.28,0-1.85l-14.77-25.22c-.32-.54-.9-.89-1.53-.91-.62,0-1.23.28-1.58.8l-17.22,25.22c-.39.56-.43,1.29-.11,1.9.32.6.95.98,1.63.98h31.99c.66,0,1.27-.35,1.6-.93ZM246.46,307.23l11.68,19.94h-25.29l13.61-19.94Z"/>
        <path class="cls-3" d="M-41.03,395.33c2.83-6.16,1.2-10.21-.27-12.28,1.33-1.43,1.76-2.93,1.86-4.06.37-4.3-3.4-8.09-3.83-8.51-.6-.58-1.52-.69-2.24-.25-.72.44-1.05,1.3-.8,2.11.33,1.11.28,2.02-.18,2.78-.9,1.49-3.17,2.25-4.06,2.45-6.7.62-11.71-.43-14.52-3.03-2.53-2.35-2.51-5.2-2.51-5.38,0-12.87,24.42-13.93,24.6-13.94,11.41,0,18.74,2.45,21.2,7.07,3.21,6.05-2.36,14.42-2.42,14.5-.5.73-.4,1.71.22,2.34l4.31,4.3c.41.41.97.6,1.55.52.57-.08,1.07-.41,1.35-.91,4.68-8.18,32.43-28.13,32.71-28.34.42-.3.7-.77.76-1.29.06-.52-.11-1.04-.46-1.43l-4.93-5.54c-.57-.64-1.51-.8-2.26-.39l-5.56,3.03c-4.59-4.25-12.52-7.41-17.78-9.16l.51-.45H25.12c6.61,10.57,16.25,26.52,17.07,29.42.71,2.45-2.35,9.27-4.74,13.33-.4.67-.33,1.52.17,2.12l3.09,3.69c.33.4.82.64,1.34.66.52.02,1.02-.18,1.39-.55l34.75-35.38c.71-.72.7-1.88-.01-2.6l-2.77-2.75c-.65-.65-1.67-.72-2.4-.17-3.25,2.43-7.8.72-9.24.08l-40.93-75.76c-3.24-6.03-3.86-10.69-1.83-13.86,4.03-6.31,17.19-5.59,17.33-5.59.89.07,1.71-.55,1.91-1.43.2-.88-.27-1.78-1.11-2.11-12.6-5.09-22.73-5.72-30.13-1.89-5.04,2.61-7.47,6.65-8.54,9.09-7.24-3.1-14.09-3.44-20.39-1-12.5,4.85-18.16,18.85-18.4,19.44-.35.89.04,1.91.9,2.33.86.42,1.9.12,2.4-.71,1.85-3.1,7.05-7.72,13.79-7.72,4.6,0,14.27,14.73,20.02,25.73l-28.62,42.64c-25.07-3.01-36.98,5.21-40.96,8.93-5.78,5.39-8.42,12.81-7.84,22.04,1.29,20.73,23.53,20.38,24.89,20.35,7.05.02,9.2,6.99,9.28,7.28.21.74.86,1.27,1.63,1.33.05,0,.09,0,.14,0,.71,0,1.37-.42,1.67-1.07ZM-53.87,384.1c-.82.04-20,.74-21.1-16.9-.5-8.08,1.74-14.51,6.68-19.11,7.63-7.12,22.25-10.05,39.1-7.83.7.08,1.38-.22,1.77-.8l29.86-44.48c.37-.56.42-1.27.11-1.87-2.45-4.79-15.11-28.7-23.79-28.7-2.93,0-5.56.67-7.83,1.69,2.6-3.12,6.09-6.22,10.49-7.92,5.83-2.25,12.32-1.67,19.28,1.73.5.25,1.09.25,1.6,0,.51-.24.88-.7,1-1.24.01-.06,1.39-5.65,7.39-8.75,4.73-2.45,10.95-2.71,18.54-.8-4.25.87-8.87,2.71-11.33,6.56-2.8,4.38-2.24,10.3,1.69,17.6l41.22,76.29c.17.31.43.57.74.74.29.16,6.75,3.59,12.3.72l.44.43-32.04,32.63-.96-1.15c1.78-3.2,5.66-10.9,4.46-15.08-1.26-4.42-16.32-28.49-18.03-31.22-.34-.54-.93-.86-1.56-.86H-14.47c-.45,0-.88.16-1.21.46l-3.5,3.06c-.51.44-.73,1.13-.59,1.78s.63,1.18,1.28,1.37c3.55,1.05,15.52,4.87,20.29,10.14.57.63,1.5.79,2.25.38l5.49-2.99,2.6,2.93c-5.74,4.19-24.42,18.13-30.77,26.34l-1.71-1.71c1.7-3.01,5.21-10.58,1.83-16.97-3.18-6-11.4-9.04-24.52-9.04h0c-.28,0-6.94.27-13.71,2.42-11.99,3.8-14.51,10.36-14.51,15.14,0,.18-.12,4.55,3.61,8.07,3.66,3.45,9.56,4.82,17.55,4.07.06,0,.11-.01.17-.02.47-.09,4.65-.96,6.59-4.16,0,0,.01-.02.02-.03.18.56.28,1.13.23,1.67-.09,1.01-.7,1.89-1.85,2.67-.48.33-.77.88-.8,1.46-.02.59.25,1.16.7,1.52.11.09,2.1,1.73,1.85,5.24-2.08-2.82-5.52-5.48-10.58-5.48-.03,0-.06,0-.09,0ZM24.04,329.92c.33-.57.33-1.28,0-1.85l-14.77-25.22c-.32-.54-.9-.89-1.53-.91-.62,0-1.23.28-1.58.8l-17.22,25.22c-.39.56-.43,1.29-.11,1.9.32.6.95.98,1.63.98h31.99c.66,0,1.27-.35,1.6-.93ZM7.55,307.23l11.68,19.94H-6.07l13.61-19.94Z"/>
        <path class="cls-3" d="M197.88,267.21c2.83-6.16,1.2-10.21-.27-12.28,1.33-1.43,1.76-2.93,1.86-4.06.37-4.3-3.4-8.09-3.83-8.51-.6-.58-1.52-.69-2.24-.25-.72.44-1.05,1.3-.8,2.11.33,1.11.28,2.02-.18,2.78-.9,1.49-3.17,2.25-4.06,2.45-6.7.62-11.71-.43-14.52-3.03-2.53-2.35-2.51-5.2-2.51-5.38,0-12.87,24.42-13.93,24.6-13.94,11.41,0,18.74,2.45,21.2,7.07,3.21,6.05-2.36,14.42-2.42,14.5-.5.73-.4,1.71.22,2.34l4.31,4.3c.41.41.97.6,1.55.52.57-.08,1.07-.41,1.35-.91,4.68-8.18,32.43-28.13,32.71-28.34.42-.3.7-.77.76-1.29.06-.52-.11-1.04-.46-1.43l-4.93-5.54c-.57-.64-1.51-.8-2.26-.39l-5.56,3.03c-4.59-4.25-12.52-7.41-17.78-9.16l.51-.45h38.9c6.61,10.57,16.25,26.52,17.07,29.42.71,2.45-2.35,9.27-4.74,13.33-.4.67-.33,1.52.17,2.12l3.09,3.69c.33.4.82.64,1.34.66.52.02,1.02-.18,1.39-.55l34.75-35.38c.71-.72.7-1.88-.01-2.6l-2.77-2.75c-.65-.65-1.67-.72-2.4-.17-3.25,2.43-7.8.72-9.24.08l-40.93-75.76c-3.24-6.03-3.86-10.69-1.83-13.86,4.03-6.31,17.19-5.59,17.33-5.59.89.07,1.71-.55,1.91-1.43.2-.88-.27-1.78-1.11-2.11-12.6-5.09-22.73-5.72-30.13-1.89-5.04,2.61-7.47,6.65-8.54,9.09-7.24-3.1-14.09-3.44-20.39-1-12.5,4.85-18.16,18.85-18.4,19.44-.35.89.04,1.91.9,2.33.86.42,1.9.12,2.4-.71,1.85-3.1,7.05-7.72,13.79-7.72,4.6,0,14.27,14.73,20.02,25.73l-28.62,42.64c-25.07-3.01-36.98,5.21-40.96,8.93-5.78,5.39-8.42,12.81-7.84,22.04,1.29,20.73,23.53,20.38,24.89,20.35,7.05.02,9.2,6.99,9.28,7.28.21.74.86,1.27,1.63,1.33.05,0,.09,0,.14,0,.71,0,1.37-.42,1.67-1.07ZM185.04,255.99c-.82.04-20,.74-21.1-16.9-.5-8.08,1.74-14.51,6.68-19.11,7.63-7.12,22.25-10.05,39.1-7.83.7.08,1.38-.22,1.77-.8l29.86-44.48c.37-.56.42-1.27.11-1.87-2.45-4.79-15.11-28.7-23.79-28.7-2.93,0-5.56.67-7.83,1.69,2.6-3.12,6.09-6.22,10.49-7.92,5.83-2.25,12.32-1.67,19.28,1.73.5.25,1.09.25,1.6,0,.51-.24.88-.7,1-1.24.01-.06,1.39-5.65,7.39-8.75,4.73-2.45,10.95-2.71,18.54-.8-4.25.87-8.87,2.71-11.33,6.56-2.8,4.38-2.24,10.3,1.69,17.6l41.22,76.29c.17.31.43.57.74.74.29.16,6.75,3.59,12.3.72l.44.43-32.04,32.63-.96-1.15c1.78-3.2,5.66-10.9,4.46-15.08-1.26-4.42-16.32-28.49-18.03-31.22-.34-.54-.93-.86-1.56-.86h-40.61c-.45,0-.88.16-1.21.46l-3.5,3.06c-.51.44-.73,1.13-.59,1.78s.63,1.18,1.28,1.37c3.55,1.05,15.52,4.87,20.29,10.14.57.63,1.5.79,2.25.38l5.49-2.99,2.6,2.93c-5.74,4.19-24.42,18.13-30.77,26.34l-1.71-1.71c1.7-3.01,5.21-10.58,1.83-16.97-3.18-6-11.4-9.04-24.52-9.04h0c-.28,0-6.94.27-13.71,2.42-11.99,3.8-14.51,10.36-14.51,15.14,0,.18-.12,4.55,3.61,8.07,3.66,3.45,9.56,4.82,17.55,4.07.06,0,.11-.01.17-.02.47-.09,4.65-.96,6.59-4.16,0,0,.01-.02.02-.03.18.56.28,1.13.23,1.67-.09,1.01-.7,1.89-1.85,2.67-.48.33-.77.88-.8,1.46-.02.59.25,1.16.7,1.52.11.09,2.1,1.73,1.85,5.24-2.08-2.82-5.52-5.48-10.58-5.48-.03,0-.06,0-.09,0ZM262.95,201.8c.33-.57.33-1.28,0-1.85l-14.77-25.22c-.32-.54-.9-.89-1.53-.91-.62,0-1.23.28-1.58.8l-17.22,25.22c-.39.56-.43,1.29-.11,1.9.32.6.95.98,1.63.98h31.99c.66,0,1.27-.35,1.6-.93ZM246.46,179.11l11.68,19.94h-25.29l13.61-19.94Z"/>
        <path class="cls-3" d="M78.43,331.27c2.83-6.16,1.2-10.21-.27-12.28,1.33-1.43,1.76-2.93,1.86-4.06.37-4.3-3.4-8.09-3.83-8.51-.6-.58-1.52-.69-2.24-.25-.72.44-1.05,1.3-.8,2.11.33,1.11.28,2.02-.18,2.78-.9,1.49-3.17,2.25-4.06,2.45-6.7.62-11.71-.43-14.52-3.03-2.53-2.35-2.51-5.2-2.51-5.38,0-12.87,24.42-13.93,24.6-13.94,11.41,0,18.74,2.45,21.2,7.07,3.21,6.05-2.36,14.42-2.42,14.5-.5.73-.4,1.71.22,2.34l4.31,4.3c.41.41.97.6,1.55.52.57-.08,1.07-.41,1.35-.91,4.68-8.18,32.43-28.13,32.71-28.34.42-.3.7-.77.76-1.29.06-.52-.11-1.04-.46-1.43l-4.93-5.54c-.57-.64-1.51-.8-2.26-.39l-5.56,3.03c-4.59-4.25-12.52-7.41-17.78-9.16l.51-.45h38.9c6.61,10.57,16.25,26.52,17.07,29.42.71,2.45-2.35,9.27-4.74,13.33-.4.67-.33,1.52.17,2.12l3.09,3.69c.33.4.82.64,1.34.66.52.02,1.02-.18,1.39-.55l34.75-35.38c.71-.72.7-1.88-.01-2.6l-2.77-2.75c-.65-.65-1.67-.72-2.4-.17-3.25,2.43-7.8.72-9.24.08l-40.93-75.76c-3.24-6.03-3.86-10.69-1.83-13.86,4.03-6.31,17.19-5.59,17.33-5.59.89.07,1.71-.55,1.91-1.43.2-.88-.27-1.78-1.11-2.11-12.6-5.09-22.73-5.72-30.13-1.89-5.04,2.61-7.47,6.65-8.54,9.09-7.24-3.1-14.09-3.44-20.39-1-12.5,4.85-18.16,18.85-18.4,19.44-.35.89.04,1.91.9,2.33.86.42,1.9.12,2.4-.71,1.85-3.1,7.05-7.72,13.79-7.72,4.6,0,14.27,14.73,20.02,25.73l-28.62,42.64c-25.07-3.01-36.98,5.21-40.96,8.93-5.78,5.39-8.42,12.81-7.84,22.04,1.29,20.73,23.53,20.38,24.89,20.35,7.05.02,9.2,6.99,9.28,7.28.21.74.86,1.27,1.63,1.33.05,0,.09,0,.14,0,.71,0,1.37-.42,1.67-1.07ZM65.58,320.04c-.82.04-20,.74-21.1-16.9-.5-8.08,1.74-14.51,6.68-19.11,7.63-7.12,22.25-10.05,39.1-7.83.7.08,1.38-.22,1.77-.8l29.86-44.48c.37-.56.42-1.27.11-1.87-2.45-4.79-15.11-28.7-23.79-28.7-2.93,0-5.56.67-7.83,1.69,2.6-3.12,6.09-6.22,10.49-7.92,5.83-2.25,12.32-1.67,19.28,1.73.5.25,1.09.25,1.6,0,.51-.24.88-.7,1-1.24.01-.06,1.39-5.65,7.39-8.75,4.73-2.45,10.95-2.71,18.54-.8-4.25.87-8.87,2.71-11.33,6.56-2.8,4.38-2.24,10.3,1.69,17.6l41.22,76.29c.17.31.43.57.74.74.29.16,6.75,3.59,12.3.72l.44.43-32.04,32.63-.96-1.15c1.78-3.2,5.66-10.9,4.46-15.08-1.26-4.42-16.32-28.49-18.03-31.22-.34-.54-.93-.86-1.56-.86h-40.61c-.45,0-.88.16-1.21.46l-3.5,3.06c-.51.44-.73,1.13-.59,1.78s.63,1.18,1.28,1.37c3.55,1.05,15.52,4.87,20.29,10.14.57.63,1.5.79,2.25.38l5.49-2.99,2.6,2.93c-5.74,4.19-24.42,18.13-30.77,26.34l-1.71-1.71c1.7-3.01,5.21-10.58,1.83-16.97-3.18-6-11.4-9.04-24.52-9.04h0c-.28,0-6.94.27-13.71,2.42-11.99,3.8-14.51,10.36-14.51,15.14,0,.18-.12,4.55,3.61,8.07,3.66,3.45,9.56,4.82,17.55,4.07.06,0,.11-.01.17-.02.47-.09,4.65-.96,6.59-4.16,0,0,.01-.02.02-.03.18.56.28,1.13.23,1.67-.09,1.01-.7,1.89-1.85,2.67-.48.33-.77.88-.8,1.46-.02.59.25,1.16.7,1.52.11.09,2.1,1.73,1.85,5.24-2.08-2.82-5.52-5.48-10.58-5.48-.03,0-.06,0-.09,0ZM143.49,265.86c.33-.57.33-1.28,0-1.85l-14.77-25.22c-.32-.54-.9-.89-1.53-.91-.62,0-1.23.28-1.58.8l-17.22,25.22c-.39.56-.43,1.29-.11,1.9.32.6.95.98,1.63.98h31.99c.66,0,1.27-.35,1.6-.93ZM127,243.17l11.68,19.94h-25.29l13.61-19.94Z"/>
        <path class="cls-3" d="M-41.03,267.21c2.83-6.16,1.2-10.21-.27-12.28,1.33-1.43,1.76-2.93,1.86-4.06.37-4.3-3.4-8.09-3.83-8.51-.6-.58-1.52-.69-2.24-.25-.72.44-1.05,1.3-.8,2.11.33,1.11.28,2.02-.18,2.78-.9,1.49-3.17,2.25-4.06,2.45-6.7.62-11.71-.43-14.52-3.03-2.53-2.35-2.51-5.2-2.51-5.38,0-12.87,24.42-13.93,24.6-13.94,11.41,0,18.74,2.45,21.2,7.07,3.21,6.05-2.36,14.42-2.42,14.5-.5.73-.4,1.71.22,2.34l4.31,4.3c.41.41.97.6,1.55.52.57-.08,1.07-.41,1.35-.91,4.68-8.18,32.43-28.13,32.71-28.34.42-.3.7-.77.76-1.29.06-.52-.11-1.04-.46-1.43l-4.93-5.54c-.57-.64-1.51-.8-2.26-.39l-5.56,3.03c-4.59-4.25-12.52-7.41-17.78-9.16l.51-.45H25.12c6.61,10.57,16.25,26.52,17.07,29.42.71,2.45-2.35,9.27-4.74,13.33-.4.67-.33,1.52.17,2.12l3.09,3.69c.33.4.82.64,1.34.66.52.02,1.02-.18,1.39-.55l34.75-35.38c.71-.72.7-1.88-.01-2.6l-2.77-2.75c-.65-.65-1.67-.72-2.4-.17-3.25,2.43-7.8.72-9.24.08l-40.93-75.76c-3.24-6.03-3.86-10.69-1.83-13.86,4.03-6.31,17.19-5.59,17.33-5.59.89.07,1.71-.55,1.91-1.43.2-.88-.27-1.78-1.11-2.11-12.6-5.09-22.73-5.72-30.13-1.89-5.04,2.61-7.47,6.65-8.54,9.09-7.24-3.1-14.09-3.44-20.39-1-12.5,4.85-18.16,18.85-18.4,19.44-.35.89.04,1.91.9,2.33.86.42,1.9.12,2.4-.71,1.85-3.1,7.05-7.72,13.79-7.72,4.6,0,14.27,14.73,20.02,25.73l-28.62,42.64c-25.07-3.01-36.98,5.21-40.96,8.93-5.78,5.39-8.42,12.81-7.84,22.04,1.29,20.73,23.53,20.38,24.89,20.35,7.05.02,9.2,6.99,9.28,7.28.21.74.86,1.27,1.63,1.33.05,0,.09,0,.14,0,.71,0,1.37-.42,1.67-1.07ZM-53.87,255.99c-.82.04-20,.74-21.1-16.9-.5-8.08,1.74-14.51,6.68-19.11,7.63-7.12,22.25-10.05,39.1-7.83.7.08,1.38-.22,1.77-.8L2.44,166.86c.37-.56.42-1.27.11-1.87-2.45-4.79-15.11-28.7-23.79-28.7-2.93,0-5.56.67-7.83,1.69,2.6-3.12,6.09-6.22,10.49-7.92,5.83-2.25,12.32-1.67,19.28,1.73.5.25,1.09.25,1.6,0,.51-.24.88-.7,1-1.24.01-.06,1.39-5.65,7.39-8.75,4.73-2.45,10.95-2.71,18.54-.8-4.25.87-8.87,2.71-11.33,6.56-2.8,4.38-2.24,10.3,1.69,17.6l41.22,76.29c.17.31.43.57.74.74.29.16,6.75,3.59,12.3.72l.44.43-32.04,32.63-.96-1.15c1.78-3.2,5.66-10.9,4.46-15.08-1.26-4.42-16.32-28.49-18.03-31.22-.34-.54-.93-.86-1.56-.86H-14.47c-.45,0-.88.16-1.21.46l-3.5,3.06c-.51.44-.73,1.13-.59,1.78s.63,1.18,1.28,1.37c3.55,1.05,15.52,4.87,20.29,10.14.57.63,1.5.79,2.25.38l5.49-2.99,2.6,2.93c-5.74,4.19-24.42,18.13-30.77,26.34l-1.71-1.71c1.7-3.01,5.21-10.58,1.83-16.97-3.18-6-11.4-9.04-24.52-9.04h0c-.28,0-6.94.27-13.71,2.42-11.99,3.8-14.51,10.36-14.51,15.14,0,.18-.12,4.55,3.61,8.07,3.66,3.45,9.56,4.82,17.55,4.07.06,0,.11-.01.17-.02.47-.09,4.65-.96,6.59-4.16,0,0,.01-.02.02-.03.18.56.28,1.13.23,1.67-.09,1.01-.7,1.89-1.85,2.67-.48.33-.77.88-.8,1.46-.02.59.25,1.16.7,1.52.11.09,2.1,1.73,1.85,5.24-2.08-2.82-5.52-5.48-10.58-5.48-.03,0-.06,0-.09,0ZM24.04,201.8c.33-.57.33-1.28,0-1.85l-14.77-25.22c-.32-.54-.9-.89-1.53-.91-.62,0-1.23.28-1.58.8l-17.22,25.22c-.39.56-.43,1.29-.11,1.9.32.6.95.98,1.63.98h31.99c.66,0,1.27-.35,1.6-.93ZM7.55,179.11l11.68,19.94H-6.07l13.61-19.94Z"/>
        <path class="cls-3" d="M197.88,139.09c2.83-6.16,1.2-10.21-.27-12.28,1.33-1.43,1.76-2.93,1.86-4.06.37-4.3-3.4-8.09-3.83-8.51-.6-.58-1.52-.69-2.24-.25-.72.44-1.05,1.3-.8,2.11.33,1.11.28,2.02-.18,2.78-.9,1.49-3.17,2.25-4.06,2.45-6.7.62-11.71-.43-14.52-3.03-2.53-2.35-2.51-5.2-2.51-5.38,0-12.87,24.42-13.93,24.6-13.94,11.41,0,18.74,2.45,21.2,7.07,3.21,6.05-2.36,14.42-2.42,14.5-.5.73-.4,1.71.22,2.34l4.31,4.3c.41.41.97.6,1.55.52.57-.08,1.07-.41,1.35-.91,4.68-8.18,32.43-28.13,32.71-28.34.42-.3.7-.77.76-1.29.06-.52-.11-1.04-.46-1.43l-4.93-5.54c-.57-.64-1.51-.8-2.26-.39l-5.56,3.03c-4.59-4.25-12.52-7.41-17.78-9.16l.51-.45h38.9c6.61,10.57,16.25,26.52,17.07,29.42.71,2.45-2.35,9.27-4.74,13.33-.4.67-.33,1.52.17,2.12l3.09,3.69c.33.4.82.64,1.34.66.52.02,1.02-.18,1.39-.55l34.75-35.38c.71-.72.7-1.88-.01-2.6l-2.77-2.75c-.65-.65-1.67-.72-2.4-.17-3.25,2.43-7.8.72-9.24.08l-40.93-75.76c-3.24-6.03-3.86-10.69-1.83-13.86,4.03-6.31,17.19-5.59,17.33-5.59.89.07,1.71-.55,1.91-1.43.2-.88-.27-1.78-1.11-2.11-12.6-5.09-22.73-5.72-30.13-1.89-5.04,2.61-7.47,6.65-8.54,9.09-7.24-3.1-14.09-3.44-20.39-1-12.5,4.85-18.16,18.85-18.4,19.44-.35.89.04,1.91.9,2.33.86.42,1.9.12,2.4-.71,1.85-3.1,7.05-7.72,13.79-7.72,4.6,0,14.27,14.73,20.02,25.73l-28.62,42.64c-25.07-3.01-36.98,5.21-40.96,8.93-5.78,5.39-8.42,12.81-7.84,22.04,1.29,20.73,23.53,20.38,24.89,20.35,7.05.02,9.2,6.99,9.28,7.28.21.74.86,1.27,1.63,1.33.05,0,.09,0,.14,0,.71,0,1.37-.42,1.67-1.07ZM185.04,127.87c-.82.04-20,.74-21.1-16.9-.5-8.08,1.74-14.51,6.68-19.11,7.63-7.12,22.25-10.05,39.1-7.83.7.08,1.38-.22,1.77-.8l29.86-44.48c.37-.56.42-1.27.11-1.87-2.45-4.79-15.11-28.7-23.79-28.7-2.93,0-5.56.67-7.83,1.69,2.6-3.12,6.09-6.22,10.49-7.92,5.83-2.25,12.32-1.67,19.28,1.73.5.25,1.09.25,1.6,0,.51-.24.88-.7,1-1.24.01-.06,1.39-5.65,7.39-8.75,4.73-2.45,10.95-2.71,18.54-.8-4.25.87-8.87,2.71-11.33,6.56-2.8,4.38-2.24,10.3,1.69,17.6l41.22,76.29c.17.31.43.57.74.74.29.16,6.75,3.59,12.3.72l.44.43-32.04,32.63-.96-1.15c1.78-3.2,5.66-10.9,4.46-15.08-1.26-4.42-16.32-28.49-18.03-31.22-.34-.54-.93-.86-1.56-.86h-40.61c-.45,0-.88.16-1.21.46l-3.5,3.06c-.51.44-.73,1.13-.59,1.78s.63,1.18,1.28,1.37c3.55,1.05,15.52,4.87,20.29,10.14.57.63,1.5.79,2.25.38l5.49-2.99,2.6,2.93c-5.74,4.19-24.42,18.13-30.77,26.34l-1.71-1.71c1.7-3.01,5.21-10.58,1.83-16.97-3.18-6-11.4-9.04-24.52-9.04h0c-.28,0-6.94.27-13.71,2.42-11.99,3.8-14.51,10.36-14.51,15.14,0,.18-.12,4.55,3.61,8.07,3.66,3.45,9.56,4.82,17.55,4.07.06,0,.11-.01.17-.02.47-.09,4.65-.96,6.59-4.16,0,0,.01-.02.02-.03.18.56.28,1.13.23,1.67-.09,1.01-.7,1.89-1.85,2.67-.48.33-.77.88-.8,1.46-.02.59.25,1.16.7,1.52.11.09,2.1,1.73,1.85,5.24-2.08-2.82-5.52-5.48-10.58-5.48-.03,0-.06,0-.09,0ZM262.95,73.69c.33-.57.33-1.28,0-1.85l-14.77-25.22c-.32-.54-.9-.89-1.53-.91-.62,0-1.23.28-1.58.8l-17.22,25.22c-.39.56-.43,1.29-.11,1.9.32.6.95.98,1.63.98h31.99c.66,0,1.27-.35,1.6-.93ZM246.46,50.99l11.68,19.94h-25.29l13.61-19.94Z"/>
        <path class="cls-3" d="M78.43,203.15c2.83-6.16,1.2-10.21-.27-12.28,1.33-1.43,1.76-2.93,1.86-4.06.37-4.3-3.4-8.09-3.83-8.51-.6-.58-1.52-.69-2.24-.25-.72.44-1.05,1.3-.8,2.11.33,1.11.28,2.02-.18,2.78-.9,1.49-3.17,2.25-4.06,2.45-6.7.62-11.71-.43-14.52-3.03-2.53-2.35-2.51-5.2-2.51-5.38,0-12.87,24.42-13.93,24.6-13.94,11.41,0,18.74,2.45,21.2,7.07,3.21,6.05-2.36,14.42-2.42,14.5-.5.73-.4,1.71.22,2.34l4.31,4.3c.41.41.97.6,1.55.52.57-.08,1.07-.41,1.35-.91,4.68-8.18,32.43-28.13,32.71-28.34.42-.3.7-.77.76-1.29.06-.52-.11-1.04-.46-1.43l-4.93-5.54c-.57-.64-1.51-.8-2.26-.39l-5.56,3.03c-4.59-4.25-12.52-7.41-17.78-9.16l.51-.45h38.9c6.61,10.57,16.25,26.52,17.07,29.42.71,2.45-2.35,9.27-4.74,13.33-.4.67-.33,1.52.17,2.12l3.09,3.69c.33.4.82.64,1.34.66.52.02,1.02-.18,1.39-.55l34.75-35.38c.71-.72.7-1.88-.01-2.6l-2.77-2.75c-.65-.65-1.67-.72-2.4-.17-3.25,2.43-7.8.72-9.24.08l-40.93-75.76c-3.24-6.03-3.86-10.69-1.83-13.86,4.03-6.31,17.19-5.59,17.33-5.59.89.07,1.71-.55,1.91-1.43.2-.88-.27-1.78-1.11-2.11-12.6-5.09-22.73-5.72-30.13-1.89-5.04,2.61-7.47,6.65-8.54,9.09-7.24-3.1-14.09-3.44-20.39-1-12.5,4.85-18.16,18.85-18.4,19.44-.35.89.04,1.91.9,2.33.86.42,1.9.12,2.4-.71,1.85-3.1,7.05-7.72,13.79-7.72,4.6,0,14.27,14.73,20.02,25.73l-28.62,42.64c-25.07-3.01-36.98,5.21-40.96,8.93-5.78,5.39-8.42,12.81-7.84,22.04,1.29,20.73,23.53,20.38,24.89,20.35,7.05.02,9.2,6.99,9.28,7.28.21.74.86,1.27,1.63,1.33.05,0,.09,0,.14,0,.71,0,1.37-.42,1.67-1.07ZM65.58,191.93c-.82.04-20,.74-21.1-16.9-.5-8.08,1.74-14.51,6.68-19.11,7.63-7.12,22.25-10.05,39.1-7.83.7.08,1.38-.22,1.77-.8l29.86-44.48c.37-.56.42-1.27.11-1.87-2.45-4.79-15.11-28.7-23.79-28.7-2.93,0-5.56.67-7.83,1.69,2.6-3.12,6.09-6.22,10.49-7.92,5.83-2.25,12.32-1.67,19.28,1.73.5.25,1.09.25,1.6,0,.51-.24.88-.7,1-1.24.01-.06,1.39-5.65,7.39-8.75,4.73-2.45,10.95-2.71,18.54-.8-4.25.87-8.87,2.71-11.33,6.56-2.8,4.38-2.24,10.3,1.69,17.6l41.22,76.29c.17.31.43.57.74.74.29.16,6.75,3.59,12.3.72l.44.43-32.04,32.63-.96-1.15c1.78-3.2,5.66-10.9,4.46-15.08-1.26-4.42-16.32-28.49-18.03-31.22-.34-.54-.93-.86-1.56-.86h-40.61c-.45,0-.88.16-1.21.46l-3.5,3.06c-.51.44-.73,1.13-.59,1.78s.63,1.18,1.28,1.37c3.55,1.05,15.52,4.87,20.29,10.14.57.63,1.5.79,2.25.38l5.49-2.99,2.6,2.93c-5.74,4.19-24.42,18.13-30.77,26.34l-1.71-1.71c1.7-3.01,5.21-10.58,1.83-16.97-3.18-6-11.4-9.04-24.52-9.04h0c-.28,0-6.94.27-13.71,2.42-11.99,3.8-14.51,10.36-14.51,15.14,0,.18-.12,4.55,3.61,8.07,3.66,3.45,9.56,4.82,17.55,4.07.06,0,.11-.01.17-.02.47-.09,4.65-.96,6.59-4.16,0,0,.01-.02.02-.03.18.56.28,1.13.23,1.67-.09,1.01-.7,1.89-1.85,2.67-.48.33-.77.88-.8,1.46-.02.59.25,1.16.7,1.52.11.09,2.1,1.73,1.85,5.24-2.08-2.82-5.52-5.48-10.58-5.48-.03,0-.06,0-.09,0ZM143.49,137.74c.33-.57.33-1.28,0-1.85l-14.77-25.22c-.32-.54-.9-.89-1.53-.91-.62,0-1.23.28-1.58.8l-17.22,25.22c-.39.56-.43,1.29-.11,1.9.32.6.95.98,1.63.98h31.99c.66,0,1.27-.35,1.6-.93ZM127,115.05l11.68,19.94h-25.29l13.61-19.94Z"/>
        <path class="cls-3" d="M-41.03,139.09c2.83-6.16,1.2-10.21-.27-12.28,1.33-1.43,1.76-2.93,1.86-4.06.37-4.3-3.4-8.09-3.83-8.51-.6-.58-1.52-.69-2.24-.25-.72.44-1.05,1.3-.8,2.11.33,1.11.28,2.02-.18,2.78-.9,1.49-3.17,2.25-4.06,2.45-6.7.62-11.71-.43-14.52-3.03-2.53-2.35-2.51-5.2-2.51-5.38,0-12.87,24.42-13.93,24.6-13.94,11.41,0,18.74,2.45,21.2,7.07,3.21,6.05-2.36,14.42-2.42,14.5-.5.73-.4,1.71.22,2.34l4.31,4.3c.41.41.97.6,1.55.52.57-.08,1.07-.41,1.35-.91,4.68-8.18,32.43-28.13,32.71-28.34.42-.3.7-.77.76-1.29.06-.52-.11-1.04-.46-1.43l-4.93-5.54c-.57-.64-1.51-.8-2.26-.39l-5.56,3.03c-4.59-4.25-12.52-7.41-17.78-9.16l.51-.45H25.12c6.61,10.57,16.25,26.52,17.07,29.42.71,2.45-2.35,9.27-4.74,13.33-.4.67-.33,1.52.17,2.12l3.09,3.69c.33.4.82.64,1.34.66.52.02,1.02-.18,1.39-.55l34.75-35.38c.71-.72.7-1.88-.01-2.6l-2.77-2.75c-.65-.65-1.67-.72-2.4-.17-3.25,2.43-7.8.72-9.24.08L22.83,15.3c-3.24-6.03-3.86-10.69-1.83-13.86,4.03-6.31,17.19-5.59,17.33-5.59.89.07,1.71-.55,1.91-1.43.2-.88-.27-1.78-1.11-2.11-12.6-5.09-22.73-5.72-30.13-1.89C3.96-6.97,1.53-2.93.46-.49c-7.24-3.1-14.09-3.44-20.39-1-12.5,4.85-18.16,18.85-18.4,19.44-.35.89.04,1.91.9,2.33.86.42,1.9.12,2.4-.71,1.85-3.1,7.05-7.72,13.79-7.72,4.6,0,14.27,14.73,20.02,25.73l-28.62,42.64c-25.07-3.01-36.98,5.21-40.96,8.93-5.78,5.39-8.42,12.81-7.84,22.04,1.29,20.73,23.53,20.38,24.89,20.35,7.05.02,9.2,6.99,9.28,7.28.21.74.86,1.27,1.63,1.33.05,0,.09,0,.14,0,.71,0,1.37-.42,1.67-1.07ZM-53.87,127.87c-.82.04-20,.74-21.1-16.9-.5-8.08,1.74-14.51,6.68-19.11,7.63-7.12,22.25-10.05,39.1-7.83.7.08,1.38-.22,1.77-.8L2.44,38.74c.37-.56.42-1.27.11-1.87C.1,32.08-12.56,8.17-21.24,8.17c-2.93,0-5.56.67-7.83,1.69,2.6-3.12,6.09-6.22,10.49-7.92C-12.75-.31-6.26.27.71,3.67c.5.25,1.09.25,1.6,0,.51-.24.88-.7,1-1.24.01-.06,1.39-5.65,7.39-8.75,4.73-2.45,10.95-2.71,18.54-.8-4.25.87-8.87,2.71-11.33,6.56-2.8,4.38-2.24,10.3,1.69,17.6l41.22,76.29c.17.31.43.57.74.74.29.16,6.75,3.59,12.3.72l.44.43-32.04,32.63-.96-1.15c1.78-3.2,5.66-10.9,4.46-15.08-1.26-4.42-16.32-28.49-18.03-31.22-.34-.54-.93-.86-1.56-.86H-14.47c-.45,0-.88.16-1.21.46l-3.5,3.06c-.51.44-.73,1.13-.59,1.78s.63,1.18,1.28,1.37c3.55,1.05,15.52,4.87,20.29,10.14.57.63,1.5.79,2.25.38l5.49-2.99,2.6,2.93c-5.74,4.19-24.42,18.13-30.77,26.34l-1.71-1.71c1.7-3.01,5.21-10.58,1.83-16.97-3.18-6-11.4-9.04-24.52-9.04h0c-.28,0-6.94.27-13.71,2.42-11.99,3.8-14.51,10.36-14.51,15.14,0,.18-.12,4.55,3.61,8.07,3.66,3.45,9.56,4.82,17.55,4.07.06,0,.11-.01.17-.02.47-.09,4.65-.96,6.59-4.16,0,0,.01-.02.02-.03.18.56.28,1.13.23,1.67-.09,1.01-.7,1.89-1.85,2.67-.48.33-.77.88-.8,1.46-.02.59.25,1.16.7,1.52.11.09,2.1,1.73,1.85,5.24-2.08-2.82-5.52-5.48-10.58-5.48-.03,0-.06,0-.09,0ZM24.04,73.69c.33-.57.33-1.28,0-1.85l-14.77-25.22c-.32-.54-.9-.89-1.53-.91-.62,0-1.23.28-1.58.8l-17.22,25.22c-.39.56-.43,1.29-.11,1.9.32.6.95.98,1.63.98h31.99c.66,0,1.27-.35,1.6-.93ZM7.55,50.99l11.68,19.94H-6.07l13.61-19.94Z"/>
        <path class="cls-3" d="M197.88,10.98c2.83-6.16,1.2-10.21-.27-12.28,1.33-1.43,1.76-2.93,1.86-4.06.37-4.3-3.4-8.09-3.83-8.51-.6-.58-1.52-.69-2.24-.25-.72.44-1.05,1.3-.8,2.11.33,1.11.28,2.02-.18,2.78-.9,1.49-3.17,2.25-4.06,2.45-6.7.62-11.71-.43-14.52-3.03-2.53-2.35-2.51-5.2-2.51-5.38,0-12.87,24.42-13.93,24.6-13.94,11.41,0,18.74,2.45,21.2,7.07,3.21,6.05-2.36,14.42-2.42,14.5-.5.73-.4,1.71.22,2.34l4.31,4.3c.41.41.97.6,1.55.52.57-.08,1.07-.41,1.35-.91,4.68-8.18,32.43-28.13,32.71-28.34.42-.3.7-.77.76-1.29.06-.52-.11-1.04-.46-1.43l-4.93-5.54c-.57-.64-1.51-.8-2.26-.39l-5.56,3.03c-4.59-4.25-12.52-7.41-17.78-9.16l.51-.45h38.9c6.61,10.57,16.25,26.52,17.07,29.42.71,2.45-2.35,9.27-4.74,13.33-.4.67-.33,1.52.17,2.12l3.09,3.69c.33.4.82.64,1.34.66.52.02,1.02-.18,1.39-.55l34.75-35.38c.71-.72.7-1.88-.01-2.6l-2.77-2.75c-.65-.65-1.67-.72-2.4-.17-3.25,2.43-7.8.72-9.24.08l-40.93-75.76c-3.24-6.03-3.86-10.69-1.83-13.86,4.03-6.31,17.19-5.59,17.33-5.59.89.07,1.71-.55,1.91-1.43.2-.88-.27-1.78-1.11-2.11-12.6-5.09-22.73-5.72-30.13-1.89-5.04,2.61-7.47,6.65-8.54,9.09-7.24-3.1-14.09-3.44-20.39-1-12.5,4.85-18.16,18.85-18.4,19.44-.35.89.04,1.91.9,2.33.86.42,1.9.12,2.4-.71,1.85-3.1,7.05-7.72,13.79-7.72,4.6,0,14.27,14.73,20.02,25.73l-28.62,42.64c-25.07-3.01-36.98,5.21-40.96,8.93-5.78,5.39-8.42,12.81-7.84,22.04,1.29,20.73,23.53,20.38,24.89,20.35,7.05.02,9.2,6.99,9.28,7.28.21.74.86,1.27,1.63,1.33.05,0,.09,0,.14,0,.71,0,1.37-.42,1.67-1.07ZM185.04-.25c-.82.04-20,.74-21.1-16.9-.5-8.08,1.74-14.51,6.68-19.11,7.63-7.12,22.25-10.05,39.1-7.83.7.08,1.38-.22,1.77-.8l29.86-44.48c.37-.56.42-1.27.11-1.87-2.45-4.79-15.11-28.7-23.79-28.7-2.93,0-5.56.67-7.83,1.69,2.6-3.12,6.09-6.22,10.49-7.92,5.83-2.25,12.32-1.67,19.28,1.73.5.25,1.09.25,1.6,0,.51-.24.88-.7,1-1.24.01-.06,1.39-5.65,7.39-8.75,4.73-2.45,10.95-2.71,18.54-.8-4.25.87-8.87,2.71-11.33,6.56-2.8,4.38-2.24,10.3,1.69,17.6l41.22,76.29c.17.31.43.57.74.74.29.16,6.75,3.59,12.3.72l.44.43L281.15-.25l-.96-1.15c1.78-3.2,5.66-10.9,4.46-15.08-1.26-4.42-16.32-28.49-18.03-31.22-.34-.54-.93-.86-1.56-.86h-40.61c-.45,0-.88.16-1.21.46l-3.5,3.06c-.51.44-.73,1.13-.59,1.78s.63,1.18,1.28,1.37c3.55,1.05,15.52,4.87,20.29,10.14.57.63,1.5.79,2.25.38l5.49-2.99,2.6,2.93c-5.74,4.19-24.42,18.13-30.77,26.34l-1.71-1.71c1.7-3.01,5.21-10.58,1.83-16.97-3.18-6-11.4-9.04-24.52-9.04h0c-.28,0-6.94.27-13.71,2.42-11.99,3.8-14.51,10.36-14.51,15.14,0,.18-.12,4.55,3.61,8.07,3.66,3.45,9.56,4.82,17.55,4.07.06,0,.11-.01.17-.02.47-.09,4.65-.96,6.59-4.16,0,0,.01-.02.02-.03.18.56.28,1.13.23,1.67-.09,1.01-.7,1.89-1.85,2.67-.48.33-.77.88-.8,1.46-.02.59.25,1.16.7,1.52.11.09,2.1,1.73,1.85,5.24-2.08-2.82-5.52-5.48-10.58-5.48-.03,0-.06,0-.09,0ZM262.95-54.43c.33-.57.33-1.28,0-1.85l-14.77-25.22c-.32-.54-.9-.89-1.53-.91-.62,0-1.23.28-1.58.8l-17.22,25.22c-.39.56-.43,1.29-.11,1.9.32.6.95.98,1.63.98h31.99c.66,0,1.27-.35,1.6-.93ZM246.46-77.13l11.68,19.94h-25.29l13.61-19.94Z"/>
        <path class="cls-3" d="M78.43,75.03c2.83-6.16,1.2-10.21-.27-12.28,1.33-1.43,1.76-2.93,1.86-4.06.37-4.3-3.4-8.09-3.83-8.51-.6-.58-1.52-.69-2.24-.25-.72.44-1.05,1.3-.8,2.11.33,1.11.28,2.02-.18,2.78-.9,1.49-3.17,2.25-4.06,2.45-6.7.62-11.71-.43-14.52-3.03-2.53-2.35-2.51-5.2-2.51-5.38,0-12.87,24.42-13.93,24.6-13.94,11.41,0,18.74,2.45,21.2,7.07,3.21,6.05-2.36,14.42-2.42,14.5-.5.73-.4,1.71.22,2.34l4.31,4.3c.41.41.97.6,1.55.52.57-.08,1.07-.41,1.35-.91,4.68-8.18,32.43-28.13,32.71-28.34.42-.3.7-.77.76-1.29.06-.52-.11-1.04-.46-1.43l-4.93-5.54c-.57-.64-1.51-.8-2.26-.39l-5.56,3.03c-4.59-4.25-12.52-7.41-17.78-9.16l.51-.45h38.9c6.61,10.57,16.25,26.52,17.07,29.42.71,2.45-2.35,9.27-4.74,13.33-.4.67-.33,1.52.17,2.12l3.09,3.69c.33.4.82.64,1.34.66.52.02,1.02-.18,1.39-.55l34.75-35.38c.71-.72.7-1.88-.01-2.6l-2.77-2.75c-.65-.65-1.67-.72-2.4-.17-3.25,2.43-7.8.72-9.24.08l-40.93-75.76c-3.24-6.03-3.86-10.69-1.83-13.86,4.03-6.31,17.19-5.59,17.33-5.59.89.07,1.71-.55,1.91-1.43.2-.88-.27-1.78-1.11-2.11-12.6-5.09-22.73-5.72-30.13-1.89-5.04,2.61-7.47,6.65-8.54,9.09-7.24-3.1-14.09-3.44-20.39-1-12.5,4.85-18.16,18.85-18.4,19.44-.35.89.04,1.91.9,2.33.86.42,1.9.12,2.4-.71,1.85-3.1,7.05-7.72,13.79-7.72,4.6,0,14.27,14.73,20.02,25.73l-28.62,42.64c-25.07-3.01-36.98,5.21-40.96,8.93-5.78,5.39-8.42,12.81-7.84,22.04,1.29,20.73,23.53,20.38,24.89,20.35,7.05.02,9.2,6.99,9.28,7.28.21.74.86,1.27,1.63,1.33.05,0,.09,0,.14,0,.71,0,1.37-.42,1.67-1.07ZM65.58,63.81c-.82.04-20,.74-21.1-16.9-.5-8.08,1.74-14.51,6.68-19.11,7.63-7.12,22.25-10.05,39.1-7.83.7.08,1.38-.22,1.77-.8l29.86-44.48c.37-.56.42-1.27.11-1.87-2.45-4.79-15.11-28.7-23.79-28.7-2.93,0-5.56.67-7.83,1.69,2.6-3.12,6.09-6.22,10.49-7.92,5.83-2.25,12.32-1.67,19.28,1.73.5.25,1.09.25,1.6,0,.51-.24.88-.7,1-1.24.01-.06,1.39-5.65,7.39-8.75,4.73-2.45,10.95-2.71,18.54-.8-4.25.87-8.87,2.71-11.33,6.56-2.8,4.38-2.24,10.3,1.69,17.6l41.22,76.29c.17.31.43.57.74.74.29.16,6.75,3.59,12.3.72l.44.43-32.04,32.63-.96-1.15c1.78-3.2,5.66-10.9,4.46-15.08-1.26-4.42-16.32-28.49-18.03-31.22-.34-.54-.93-.86-1.56-.86h-40.61c-.45,0-.88.16-1.21.46l-3.5,3.06c-.51.44-.73,1.13-.59,1.78s.63,1.18,1.28,1.37c3.55,1.05,15.52,4.87,20.29,10.14.57.63,1.5.79,2.25.38l5.49-2.99,2.6,2.93c-5.74,4.19-24.42,18.13-30.77,26.34l-1.71-1.71c1.7-3.01,5.21-10.58,1.83-16.97-3.18-6-11.4-9.04-24.52-9.04h0c-.28,0-6.94.27-13.71,2.42-11.99,3.8-14.51,10.36-14.51,15.14,0,.18-.12,4.55,3.61,8.07,3.66,3.45,9.56,4.82,17.55,4.07.06,0,.11-.01.17-.02.47-.09,4.65-.96,6.59-4.16,0,0,.01-.02.02-.03.18.56.28,1.13.23,1.67-.09,1.01-.7,1.89-1.85,2.67-.48.33-.77.88-.8,1.46-.02.59.25,1.16.7,1.52.11.09,2.1,1.73,1.85,5.24-2.08-2.82-5.52-5.48-10.58-5.48-.03,0-.06,0-.09,0ZM143.49,9.63c.33-.57.33-1.28,0-1.85l-14.77-25.22c-.32-.54-.9-.89-1.53-.91-.62,0-1.23.28-1.58.8l-17.22,25.22c-.39.56-.43,1.29-.11,1.9.32.6.95.98,1.63.98h31.99c.66,0,1.27-.35,1.6-.93ZM127-13.07l11.68,19.94h-25.29l13.61-19.94Z"/>
        <path class="cls-3" d="M-41.03,10.98c2.83-6.16,1.2-10.21-.27-12.28,1.33-1.43,1.76-2.93,1.86-4.06.37-4.3-3.4-8.09-3.83-8.51-.6-.58-1.52-.69-2.24-.25-.72.44-1.05,1.3-.8,2.11.33,1.11.28,2.02-.18,2.78-.9,1.49-3.17,2.25-4.06,2.45-6.7.62-11.71-.43-14.52-3.03-2.53-2.35-2.51-5.2-2.51-5.38,0-12.87,24.42-13.93,24.6-13.94,11.41,0,18.74,2.45,21.2,7.07,3.21,6.05-2.36,14.42-2.42,14.5-.5.73-.4,1.71.22,2.34L-19.68-.92c.41.41.97.6,1.55.52.57-.08,1.07-.41,1.35-.91C-12.1-9.49,15.65-29.44,15.93-29.65c.42-.3.7-.77.76-1.29.06-.52-.11-1.04-.46-1.43l-4.93-5.54c-.57-.64-1.51-.8-2.26-.39l-5.56,3.03c-4.59-4.25-12.52-7.41-17.78-9.16l.51-.45H25.12c6.61,10.57,16.25,26.52,17.07,29.42.71,2.45-2.35,9.27-4.74,13.33-.4.67-.33,1.52.17,2.12l3.09,3.69c.33.4.82.64,1.34.66.52.02,1.02-.18,1.39-.55l34.75-35.38c.71-.72.7-1.88-.01-2.6l-2.77-2.75c-.65-.65-1.67-.72-2.4-.17-3.25,2.43-7.8.72-9.24.08L22.83-112.81c-3.24-6.03-3.86-10.69-1.83-13.86,4.03-6.31,17.19-5.59,17.33-5.59.89.07,1.71-.55,1.91-1.43.2-.88-.27-1.78-1.11-2.11-12.6-5.09-22.73-5.72-30.13-1.89-5.04,2.61-7.47,6.65-8.54,9.09-7.24-3.1-14.09-3.44-20.39-1-12.5,4.85-18.16,18.85-18.4,19.44-.35.89.04,1.91.9,2.33.86.42,1.9.12,2.4-.71,1.85-3.1,7.05-7.72,13.79-7.72,4.6,0,14.27,14.73,20.02,25.73l-28.62,42.64c-25.07-3.01-36.98,5.21-40.96,8.93-5.78,5.39-8.42,12.81-7.84,22.04C-77.36,3.81-55.12,3.46-53.76,3.43c7.05.02,9.2,6.99,9.28,7.28.21.74.86,1.27,1.63,1.33.05,0,.09,0,.14,0,.71,0,1.37-.42,1.67-1.07ZM-53.87-.25c-.82.04-20,.74-21.1-16.9-.5-8.08,1.74-14.51,6.68-19.11,7.63-7.12,22.25-10.05,39.1-7.83.7.08,1.38-.22,1.77-.8L2.44-89.38c.37-.56.42-1.27.11-1.87-2.45-4.79-15.11-28.7-23.79-28.7-2.93,0-5.56.67-7.83,1.69,2.6-3.12,6.09-6.22,10.49-7.92,5.83-2.25,12.32-1.67,19.28,1.73.5.25,1.09.25,1.6,0,.51-.24.88-.7,1-1.24.01-.06,1.39-5.65,7.39-8.75,4.73-2.45,10.95-2.71,18.54-.8-4.25.87-8.87,2.71-11.33,6.56-2.8,4.38-2.24,10.3,1.69,17.6L60.8-34.77c.17.31.43.57.74.74.29.16,6.75,3.59,12.3.72l.44.43L42.24-.25l-.96-1.15c1.78-3.2,5.66-10.9,4.46-15.08-1.26-4.42-16.32-28.49-18.03-31.22-.34-.54-.93-.86-1.56-.86H-14.47c-.45,0-.88.16-1.21.46l-3.5,3.06c-.51.44-.73,1.13-.59,1.78s.63,1.18,1.28,1.37c3.55,1.05,15.52,4.87,20.29,10.14.57.63,1.5.79,2.25.38l5.49-2.99,2.6,2.93C6.39-27.24-12.29-13.31-18.64-5.1l-1.71-1.71c1.7-3.01,5.21-10.58,1.83-16.97-3.18-6-11.4-9.04-24.52-9.04h0c-.28,0-6.94.27-13.71,2.42-11.99,3.8-14.51,10.36-14.51,15.14,0,.18-.12,4.55,3.61,8.07,3.66,3.45,9.56,4.82,17.55,4.07.06,0,.11-.01.17-.02.47-.09,4.65-.96,6.59-4.16,0,0,.01-.02.02-.03.18.56.28,1.13.23,1.67-.09,1.01-.7,1.89-1.85,2.67-.48.33-.77.88-.8,1.46-.02.59.25,1.16.7,1.52.11.09,2.1,1.73,1.85,5.24-2.08-2.82-5.52-5.48-10.58-5.48-.03,0-.06,0-.09,0ZM24.04-54.43c.33-.57.33-1.28,0-1.85l-14.77-25.22c-.32-.54-.9-.89-1.53-.91-.62,0-1.23.28-1.58.8l-17.22,25.22c-.39.56-.43,1.29-.11,1.9.32.6.95.98,1.63.98h31.99c.66,0,1.27-.35,1.6-.93ZM7.55-77.13l11.68,19.94H-6.07l13.61-19.94Z"/>
      </g>
    </pattern>
  </defs>
  <g id="ARTWORK">
    <rect class="cls-2" y="0" width="4896" height="3278.78"/>
  </g>
</svg>